<svg xmlns="http://www.w3.org/2000/svg" width="23.648" height="23.648" viewBox="0 0 23.648 23.648">
  <g id="Group_1281" data-name="Group 1281" transform="translate(-989.234 -1695.117)">
    <ellipse id="Ellipse_133" data-name="Ellipse 133" cx="11.824" cy="11.824" rx="11.824" ry="11.824" transform="translate(989.234 1695.117)" fill="#632fdf"/>
    <path id="Icon_awesome-chalkboard-teacher" data-name="Icon awesome-chalkboard-teacher" d="M4.792,8.109a.527.527,0,0,0-.163.025,3.039,3.039,0,0,1-.943.159,3.042,3.042,0,0,1-.943-.159.526.526,0,0,0-.162-.025A2.58,2.58,0,0,0,0,10.7a1.1,1.1,0,0,0,1.106,1.091h5.16A1.1,1.1,0,0,0,7.372,10.7,2.58,2.58,0,0,0,4.792,8.109ZM3.686,7.372A2.212,2.212,0,1,0,1.474,5.16,2.212,2.212,0,0,0,3.686,7.372ZM13.638,0H4.792A1.126,1.126,0,0,0,3.686,1.142V2.212a2.915,2.915,0,0,1,1.474.41V1.474h8.109V8.109H11.795V6.635H8.846V8.109H7.09A2.936,2.936,0,0,1,8,9.583h5.634a1.126,1.126,0,0,0,1.106-1.142v-7.3A1.126,1.126,0,0,0,13.638,0Z" transform="translate(993.679 1702.137)" fill="#ebf3ff"/>
  </g>
</svg>
