<svg id="noun_Time_469416" xmlns="http://www.w3.org/2000/svg" width="23.262" height="23.005" viewBox="0 0 23.262 23.005">
  <path id="Path_52" data-name="Path 52" d="M17.679,6a11.636,11.636,0,0,0-5.839,1.56,11.758,11.758,0,0,0-4.273,4.257h0a11.588,11.588,0,0,0,0,11.635,11.758,11.758,0,0,0,4.273,4.257.935.935,0,0,0,.531.132,1.079,1.079,0,0,0,.929-.529,1.051,1.051,0,0,0-.4-1.454,9.355,9.355,0,0,1-3.5-3.464,9.527,9.527,0,0,1,0-9.519h0a9.623,9.623,0,0,1,3.5-3.49,9.768,9.768,0,0,1,3.716-1.216v9.175l-3.185,5.5a1.074,1.074,0,0,0,.4,1.454.935.935,0,0,0,.531.132,1.079,1.079,0,0,0,.929-.529l3.318-5.738c0-.026.027-.026.027-.053.027-.026.027-.079.053-.106,0-.026.027-.053.027-.106,0-.026.027-.079.027-.106V7.058A1.063,1.063,0,0,0,17.679,6Zm-.4,11.635a.4.4,0,1,1,.4.4A.407.407,0,0,1,17.281,17.635Z" transform="translate(-6 -6)" fill="#632fdf"/>
  <path id="Path_53" data-name="Path 53" d="M68.208,12.506a.751.751,0,0,0-.4-.106h0a.793.793,0,0,0-.69.4.808.808,0,0,0,.292,1.084.751.751,0,0,0,.4.106.793.793,0,0,0,.69-.4A.8.8,0,0,0,68.208,12.506Z" transform="translate(-50.822 -10.708)" fill="#632fdf"/>
  <path id="Path_54" data-name="Path 54" d="M82.41,28.587a.8.8,0,0,0,.77-.582.807.807,0,0,0-.08-.608.793.793,0,0,0-.69-.4h0a.751.751,0,0,0-.4.106.808.808,0,0,0-.292,1.084A.863.863,0,0,0,82.41,28.587Z" transform="translate(-61.547 -21.447)" fill="#632fdf"/>
  <ellipse id="Ellipse_26" data-name="Ellipse 26" cx="0.802" cy="0.802" rx="0.802" ry="0.802" transform="translate(11.23 21.401)" fill="#632fdf"/>
  <ellipse id="Ellipse_27" data-name="Ellipse 27" cx="0.802" cy="0.802" rx="0.802" ry="0.802" transform="translate(21.657 10.973)" fill="#632fdf"/>
  <path id="Path_55" data-name="Path 55" d="M82.808,67.106a.751.751,0,0,0-.4-.106h0a.793.793,0,0,0-.69.4.808.808,0,0,0,.292,1.084.751.751,0,0,0,.4.106.793.793,0,0,0,.69-.4.807.807,0,0,0,.08-.608A.748.748,0,0,0,82.808,67.106Z" transform="translate(-61.547 -50.87)" fill="#632fdf"/>
  <path id="Path_56" data-name="Path 56" d="M67.81,81.6h0a.751.751,0,0,0-.4.106.808.808,0,0,0-.292,1.084.793.793,0,0,0,.69.4.751.751,0,0,0,.4-.106A.808.808,0,0,0,68.5,82,.793.793,0,0,0,67.81,81.6Z" transform="translate(-50.822 -61.61)" fill="#632fdf"/>
</svg>
