<svg id="Layer_1" data-name="Layer 1" xmlns="http://www.w3.org/2000/svg" viewBox="0 0 40 40"><defs><style>.cls-1{fill:#632fdf;}.cls-2{isolation:isolate;}.cls-3{fill:#fff;}</style></defs><path class="cls-1" d="M20,0A20,20,0,1,1,0,20,20,20,0,0,1,20,0Z" transform="translate(0 0)"/><g class="cls-2"><g class="cls-2"><path class="cls-3" d="M18.59,27.8a.69.69,0,0,1-.21-.51V21.44H12.65a.72.72,0,0,1-.72-.72V19.1a.72.72,0,0,1,.72-.72h5.73V12.71a.71.71,0,0,1,.21-.53A.72.72,0,0,1,19.1,12h1.8a.69.69,0,0,1,.52.19.74.74,0,0,1,.2.53v5.67h5.73a.72.72,0,0,1,.72.72v1.62a.76.76,0,0,1-.19.51.71.71,0,0,1-.53.21H21.62v5.85a.73.73,0,0,1-.2.51.67.67,0,0,1-.52.21H19.1A.69.69,0,0,1,18.59,27.8Z" transform="translate(0 0)"/></g></g></svg>