<svg id="Group_1280" data-name="Group 1280" xmlns="http://www.w3.org/2000/svg" width="23.648" height="23.648" viewBox="0 0 23.648 23.648">
  <ellipse id="Ellipse_134" data-name="Ellipse 134" cx="11.824" cy="11.824" rx="11.824" ry="11.824" fill="#632fdf"/>
  <path id="Icon_material-people" data-name="Icon material-people" d="M12.892,11.963a2.232,2.232,0,1,0-2.278-2.232A2.246,2.246,0,0,0,12.892,11.963Zm-6.076,0A2.232,2.232,0,1,0,4.538,9.732,2.246,2.246,0,0,0,6.816,11.963Zm0,1.488c-1.77,0-5.316.87-5.316,2.6v1.86H12.132v-1.86C12.132,14.322,8.586,13.451,6.816,13.451Zm6.076,0c-.22,0-.471.015-.737.037a3.127,3.127,0,0,1,1.5,2.566v1.86h4.557v-1.86C18.208,14.322,14.661,13.451,12.892,13.451Z" transform="translate(2.592 -1.174)" fill="#ebf3ff"/>
</svg>
