<svg xmlns="http://www.w3.org/2000/svg" width="96.96" height="79.209" viewBox="0 0 96.96 79.209">
  <g id="undraw_exams_g4ow" transform="translate(-0.001 -0.021)">
    <path id="Path_1178" data-name="Path 1178" d="M203.153,94.431v.18q-.016,1.557-.184,3.105a.11.11,0,0,1,0,.019c-.009.086-.019.171-.029.256-.017.145-.035.289-.054.434a31.22,31.22,0,0,1-1.137,5.208h0a28.083,28.083,0,0,1-2.969,6.538q-.584.937-1.244,1.814h0c-.235.31-.474.613-.722.911q-.26.313-.531.616l-.112.124a29.267,29.267,0,0,1-3.058,2.906,47.993,47.993,0,0,1-5.63,3.94c-.11.068-.222.135-.333.2l-.025.015a59.368,59.368,0,0,1-8.2,4.19,37.181,37.181,0,0,1-9.547,2.589,46.981,46.981,0,0,1-13.706-.679,89.07,89.07,0,0,1-11.147-2.663l-.6-.188q-.468-.149-.934-.3-2.818-.932-5.574-2.072a73.263,73.263,0,0,1-13.153-7.062q-.789-.531-1.556-1.085-1.071-.771-2.117-1.588l-.43-.333a44.22,44.22,0,0,1-5.112-4.695,26.066,26.066,0,0,1-5.13-7.892q-.282-.7-.517-1.429l-.015-.048c-.079-.247-.152-.493-.219-.75q-.148-.55-.259-1.115c-.016-.072-.03-.144-.042-.217a18.665,18.665,0,0,1-.311-3.84,17.757,17.757,0,0,1,.395-3.354h0a15.13,15.13,0,0,1,1.118-3.312h0a11.936,11.936,0,0,1,1.71-2.637h0a10.085,10.085,0,0,1,1.611-1.505,13.158,13.158,0,0,1,3.487-1.791h0c.578-.207,1.164-.389,1.753-.557.417-.12.837-.235,1.254-.347l1.231-.332c.789-.215,1.578-.436,2.356-.675a26.535,26.535,0,0,0,6.116-2.6c.3-.184.614-.387.923-.6q.592-.411,1.168-.894h0c.389-.326.769-.674,1.132-1.043.056-.057.111-.114.167-.173.3-.312.583-.638.849-.978.13-.166.257-.334.377-.506.167-.238.325-.479.471-.728h0a7.453,7.453,0,0,0,1.131-4.059,6.246,6.246,0,0,0-.064-.711c-.128-.871-.252-1.721-.342-2.553-.381-3.44-.22-6.559,2.362-9.49,3.21-3.643,8.248-4.386,12.834-4.095,13.259.839,25.33,8.409,35.937,17.421q1.376,1.168,2.719,2.368.338.3.678.608c1.677,1.51,3.328,3.077,4.866,4.755.124.136.249.272.371.409.075.085.151.169.225.255q.719.814,1.4,1.667a31.584,31.584,0,0,1,3.188,4.834,27.441,27.441,0,0,1,2.8,8.55h0a30.468,30.468,0,0,1,.338,3.272c.017.323.028.646.034.969v.31C203.154,94.135,203.154,94.281,203.153,94.431Z" transform="translate(-108.55 -48.49)" fill="#6c63ff" opacity="0.1"/>
    <path id="Path_1179" data-name="Path 1179" d="M379.558,445.135l-1.578,28.094,1.578.021,1.282-28.509Z" transform="translate(-340.692 -400.848)" fill="#3f3d56"/>
    <rect id="Rectangle_584" data-name="Rectangle 584" width="19.532" height="4.242" transform="translate(13.514 58.521)" fill="#6c63ff"/>
    <path id="Path_1180" data-name="Path 1180" d="M252.833,679.51v2.663H232.657q-1.071-.771-2.117-1.588V679.51Z" transform="translate(-218.505 -617.242)" fill="#3f3d56"/>
    <path id="Path_1181" data-name="Path 1181" d="M206.278,514.056c-.055.256-.127.508-.2.76a9.9,9.9,0,0,0-.546,2.2c-.07,1,.2,2.159-.493,2.884-.178.187-.409.328-.568.528a.921.921,0,0,0-.067.1,1.529,1.529,0,0,0-.161.789,13.815,13.815,0,0,0,.111,1.712c.234,1.953.7,3.91.089,5.754a8.88,8.88,0,0,1-.384.938,7.332,7.332,0,0,0-.715,2,12.591,12.591,0,0,0-.053,1.593q-.468-.149-.934-.3-2.818-.932-5.574-2.072c0-.027.01-.054.014-.081a6.285,6.285,0,0,0-.287-2.632c-.493-1.814-1.192-3.61-1.6-5.437a13.76,13.76,0,0,1-.327-2.17c-.012-.164-.019-.328-.02-.493,0-.215,0-.43.009-.647.021-.433.039-.947-.307-1.21a2.651,2.651,0,0,0-.664-.255,3.764,3.764,0,0,1-1.06-.863,1.39,1.39,0,0,0-1.242-.365c-2.218.508-3.847,2.389-5.911,3.34-.08.038-.16.073-.241.107a3.507,3.507,0,0,0-.757.387.862.862,0,0,0-.339.478,1.79,1.79,0,0,0,.019.643,3.284,3.284,0,0,1-.044,1.049,3.194,3.194,0,0,1-.106.395c-.079.234-.184.463-.285.691q-.789-.531-1.556-1.085-1.071-.771-2.117-1.588l-.423-.34a44.218,44.218,0,0,1-5.112-4.695,17.877,17.877,0,0,0,.66-1.749c.083-.348.113-.71.228-1.049a3.771,3.771,0,0,1,.545-.977,13.219,13.219,0,0,1,3.032-3.034,41.1,41.1,0,0,0,3.734-2.573,5.892,5.892,0,0,0,1.141-1.352.846.846,0,0,0,.052-.1,2.047,2.047,0,0,0,.177-.564c.079-.442.067-.927.107-1.351a14.416,14.416,0,0,0,4.057.122c1.573-.177,3.112-.614,4.686-.783.118-.014.238-.025.357-.035.5-.04,1.009-.049,1.515-.043.423,0,.846.019,1.27.033l4.659.158a4.574,4.574,0,0,1,1.523.226,3.329,3.329,0,0,1,1.393,1.16c.046.063.093.126.136.191a6.017,6.017,0,0,1,.718,1.42c.019.051.036.1.053.155.044.137.083.275.117.415.027.11.05.219.072.329a14.146,14.146,0,0,0,.344,1.633c.012.038.025.077.038.114.206.578.548,1.1.807,1.651a6.134,6.134,0,0,1,.424,1.256A6.206,6.206,0,0,1,206.278,514.056Z" transform="translate(-167.921 -457.849)" fill="#35323e"/>
    <path id="Path_1182" data-name="Path 1182" d="M237.9,258.7c-.416-.331-1.02-.089-1.507.125a9.681,9.681,0,0,1-1.259.455.532.532,0,0,1-.276.029c-.2-.047-.28-.281-.427-.423a.951.951,0,0,0-1-.054,2.29,2.29,0,0,1-1.008.3c-.377-.03-.7-.308-1.085-.317-.671-.016-1.234.811-1.868.592-.387-.133-.691-.636-1.071-.493-.3.112-.323.522-.5.789a1.9,1.9,0,0,1-.97.538,2.786,2.786,0,0,0-1.691,2.844,9.8,9.8,0,0,0,.6,1.866c.618,1.8.405,3.839,1.184,5.579.1-.093.154-.127.25-.219a2.283,2.283,0,0,0-.133,1.638c.082.273.215.528.316.8a7.126,7.126,0,0,1,.253.917l.858,3.786a24.585,24.585,0,0,1,.73,4.475,13.059,13.059,0,0,1-.225,2.94c1.555-.257,2.977-.947,4.553-.938a12.693,12.693,0,0,1,1.724.178,35.5,35.5,0,0,0,5.044.342,2,2,0,0,0,.773-.109,5.806,5.806,0,0,0,.6-.377,2.653,2.653,0,0,1,1.35-.3c2.11-.038,4.143.734,6.239,1.006a7.512,7.512,0,0,0,.242-5.635,8.413,8.413,0,0,1-.517-1.633,8.259,8.259,0,0,1-.024-1.049,7.607,7.607,0,0,0-.476-2.622,2.7,2.7,0,0,1-.256-1.013,2.3,2.3,0,0,1,.355-.986,6.846,6.846,0,0,1,2.915-3.182l1.522-1.022a15.018,15.018,0,0,0-1.034-3.909,6.952,6.952,0,0,0-2.518-3.028,8.32,8.32,0,0,0-1.19-.592,5.528,5.528,0,0,0-1.8-.493,9.54,9.54,0,0,0-2.111.268C242.253,260.141,239.654,260.1,237.9,258.7Z" transform="translate(-213.707 -237.798)" fill="#6c63ff"/>
    <path id="Path_1183" data-name="Path 1183" d="M152.308,487.472l-.724.914-1.365,1.723-1.578,1.992-.441.556h-.855l-21.179.025L112.9,492.7h-.592c-.079-.247-.152-.493-.219-.75q-.148-.55-.259-1.115c-.016-.072-.03-.144-.042-.217l4.812-3.146,1.809-.01h0l5.534-.032h0l3.091-.018h.918l2.06-.011h0l15.7-.09h0l.8,0h.348l.922,0,3.432-.02.659-.251.048.051Z" transform="translate(-111.469 -443.749)" fill="#3f3d56"/>
    <path id="Path_1184" data-name="Path 1184" d="M149.093,447.779l-.082.1-.539.634-1.109,1.309-2.325,2.741-20.6-.526-15.532-.395c-.016-.072-.03-.144-.042-.217a18.666,18.666,0,0,1-.311-3.84l1.722-.882.395-.2,3.071-1.578,2.7-1.381,7.03.913,1.557.2.7.091,1.031.134.087.012,16.165,2.1,1.786.232,1.049.136,3.232.42Z" transform="translate(-108.55 -404.55)" fill="#504f60"/>
    <path id="Path_1185" data-name="Path 1185" d="M460.337,534.51l-.017.388-.1,2.189-.531,12.035-.112,2.6-.3,6.692-.167,3.78-.6-.188q-.468-.149-.934-.3l1.443-26.24.031-.55.635-.2Z" transform="translate(-423.148 -486.546)" fill="#3f3d56"/>
    <path id="Path_1186" data-name="Path 1186" d="M115.67,534.22l-.044,1.013-.065,1.48q-.282-.7-.517-1.429l-.015-.048c-.079-.247-.152-.493-.219-.75Z" transform="translate(-114.191 -486.284)" fill="#3f3d56"/>
    <ellipse id="Ellipse_129" data-name="Ellipse 129" cx="4.538" cy="6.116" rx="4.538" ry="6.116" transform="translate(22.738 20.788)" fill="#a1616a"/>
    <ellipse id="Ellipse_130" data-name="Ellipse 130" cx="4.538" cy="6.116" rx="4.538" ry="6.116" transform="translate(22.738 20.788)" opacity="0.1"/>
    <circle id="Ellipse_131" data-name="Ellipse 131" cx="6.313" cy="6.313" r="6.313" transform="translate(21.603 16.891)" fill="#a1616a"/>
    <path id="Path_1187" data-name="Path 1187" d="M329.034,183.6a8.085,8.085,0,0,0-1.145.175,9.273,9.273,0,0,0-2.7,1.31,3.215,3.215,0,0,0-1,.835c-.42.626-.257,1.423-.493,2.119a6.1,6.1,0,0,1-.538,1.01,12.028,12.028,0,0,0-1.067,2.9c-.055.205-.071.483.153.562a.617.617,0,0,0,.383-.043,2.245,2.245,0,0,1,2.131.174c.525.474.48,1.316,1.1,1.677.715.417,1.832-.087,2.481.405.278.211.379.549.607.8a2.759,2.759,0,0,0,2.4.444c.487-.069,1.085-.115,1.381.227.142.162.182.384.347.53a.906.906,0,0,0,1.127-.141,7.573,7.573,0,0,0,.668-.943c.469-.592,1.292-.914,1.776-1.5a3.612,3.612,0,0,0,.637-1.707l.411-2.209a3.638,3.638,0,0,0-.185-2.663c-.18-.284-.437-.529-.592-.823-.1-.2-.162-.405-.282-.592a2.458,2.458,0,0,0-.506-.511l-.974-.806a8.19,8.19,0,0,0-1.064-.789C332.7,183.235,330.622,183.448,329.034,183.6Z" transform="translate(-300.992 -170.122)" fill="#464353"/>
    <path id="Path_1188" data-name="Path 1188" d="M119.439,338.947c-.234.249-.45.517-.7.75a8.478,8.478,0,0,1-.691.552q-.58.434-1.134.9a6.353,6.353,0,0,0-1.04,1.039c-.527.707-.776,1.587-1.27,2.318-.436.648-1.051,1.16-1.494,1.8a2.79,2.79,0,0,0-.426.895,4.157,4.157,0,0,0-.088.946,7.025,7.025,0,0,0,.09,1.558,2.362,2.362,0,0,0,.741,1.346,3.25,3.25,0,0,0,1.323.572,1.191,1.191,0,0,0,.736.021,1.214,1.214,0,0,0,.428-.361l1.2-1.381a9.24,9.24,0,0,1,2.739-2.417c.345-.169.709-.3,1.056-.46a5.685,5.685,0,0,0,2.908-3.734c.1-.386.162-.779.226-1.173l.174-1.079a.345.345,0,0,0,0-.165.355.355,0,0,0-.126-.15,20.924,20.924,0,0,1-2.342-2.21,5.4,5.4,0,0,0-.531-.608c-.249-.2-.23-.183-.529,0A6.341,6.341,0,0,0,119.439,338.947Z" transform="translate(-112.192 -309.21)" fill="#a1616a"/>
    <path id="Path_1189" data-name="Path 1189" d="M261.3,421.522a.185.185,0,1,0-.333.162l-.1.048,2.942,6.029.532-.259-2.942-6.033Z" transform="translate(-245.843 -384.603)" fill="#3f3d56"/>
    <path id="Path_1190" data-name="Path 1190" d="M119.439,338.947c-.234.249-.45.517-.7.75a8.478,8.478,0,0,1-.691.552q-.58.434-1.134.9a6.353,6.353,0,0,0-1.04,1.039c-.527.707-.776,1.587-1.27,2.318-.436.648-1.051,1.16-1.494,1.8a2.79,2.79,0,0,0-.426.895,4.157,4.157,0,0,0-.088.946,7.025,7.025,0,0,0,.09,1.558,2.362,2.362,0,0,0,.741,1.346,3.25,3.25,0,0,0,1.323.572,1.191,1.191,0,0,0,.736.021,1.214,1.214,0,0,0,.428-.361l1.2-1.381a9.24,9.24,0,0,1,2.739-2.417c.345-.169.709-.3,1.056-.46a5.685,5.685,0,0,0,2.908-3.734c.1-.386.162-.779.226-1.173l.174-1.079a.345.345,0,0,0,0-.165.355.355,0,0,0-.126-.15,20.924,20.924,0,0,1-2.342-2.21,5.4,5.4,0,0,0-.531-.608c-.249-.2-.23-.183-.529,0A6.341,6.341,0,0,0,119.439,338.947Z" transform="translate(-112.192 -309.21)" opacity="0.04"/>
    <path id="Path_1191" data-name="Path 1191" d="M459.8,380.306a4.605,4.605,0,0,1-.3,1.852.986.986,0,0,1-.548.575,1.277,1.277,0,0,1-.482.018,17.428,17.428,0,0,0-5.77.458c.5-1.006.214-2.213.353-3.329.038-.3.109-.6.135-.91a11.525,11.525,0,0,0-.579-3.21,7.182,7.182,0,0,1,0-2.809,1.874,1.874,0,0,1,.242-.676,1.586,1.586,0,0,1,.554-.482,4.653,4.653,0,0,1,2.639-.447,5.424,5.424,0,0,1,2.321.355c.551.407.726,1.776.875,2.408a20.365,20.365,0,0,1,.454,2.947A31.654,31.654,0,0,1,459.8,380.306Z" transform="translate(-418.545 -339.457)" fill="#a1616a"/>
    <path id="Path_1192" data-name="Path 1192" d="M59.98,436.03l3.551,2.368,15.981-.592L68.957,436.03Z" transform="translate(-54.062 -392.997)" fill="#fff"/>
    <path id="Path_1193" data-name="Path 1193" d="M178.486,284.889c-.583.514-1.077,1.12-1.63,1.667a22.423,22.423,0,0,1-2.476,2.027,1.843,1.843,0,0,1,1.282,1.292c.037.145.056.3.1.438a2.393,2.393,0,0,0,.548.888c1,1.128,2.4,1.962,2.99,3.354a.31.31,0,0,0,.118.168.259.259,0,0,0,.153.018,2.091,2.091,0,0,0,1.282-.9,9.456,9.456,0,0,0,1.677-2.952,5.261,5.261,0,0,0,.025-3.354,8.585,8.585,0,0,0-.776-1.512l-.766-1.275c-.133-.224-.3-.679-.564-.789C179.885,283.712,178.848,284.527,178.486,284.889Z" transform="translate(-167.885 -260.667)" fill="#6c63ff"/>
    <path id="Path_1194" data-name="Path 1194" d="M450.2,340.216l.84,1.973a6.1,6.1,0,0,0-5.514.765,3.1,3.1,0,0,0-1.133,1.319.576.576,0,0,1-.571-.224,1.145,1.145,0,0,1-.211-.6,4.757,4.757,0,0,1,.493-2.209,3.181,3.181,0,0,1,.5-.939,2.938,2.938,0,0,1,.858-.615,19.111,19.111,0,0,1,3.112-1.375.932.932,0,0,1,1.184.28C450.057,339.094,449.971,339.678,450.2,340.216Z" transform="translate(-410.546 -309.619)" fill="#6c63ff"/>
    <path id="Path_1195" data-name="Path 1195" d="M125.3,412.306c.21.168.395.366.611.526a4.356,4.356,0,0,0,.726.407l.973.468a5.45,5.45,0,0,0,.942.383c.416.111.853.122,1.272.226.528.13,1.01.4,1.53.558a1.769,1.769,0,0,0,1.563-.144c.271-.2.476-.542.813-.592a1.075,1.075,0,0,1,.62.178l2.531,1.331a1.928,1.928,0,0,1,.881.721.666.666,0,0,1-.318.951,3.465,3.465,0,0,1-.395.023.309.309,0,0,0-.29.224.45.45,0,0,0,.062.232.97.97,0,0,1,.015.825.59.59,0,0,1-.716.3c.044.382-.371.649-.741.751a6.7,6.7,0,0,1-2.877-.063,3.944,3.944,0,0,1-1.1-.3c-.164-.08-.316-.182-.481-.257a3.435,3.435,0,0,0-1.469-.167,34.032,34.032,0,0,1-6.84-.81,3.309,3.309,0,0,1-1.208-.395,2.24,2.24,0,0,1-.834-2.19,6.575,6.575,0,0,1,.935-2.275l.528-.93a1.2,1.2,0,0,1,.284-.375C123.1,411.319,124.637,411.771,125.3,412.306Z" transform="translate(-119.363 -375.789)" fill="#a1616a"/>
    <path id="Path_1196" data-name="Path 1196" d="M125.3,412.306c.21.168.395.366.611.526a4.356,4.356,0,0,0,.726.407l.973.468a5.45,5.45,0,0,0,.942.383c.416.111.853.122,1.272.226.528.13,1.01.4,1.53.558a1.769,1.769,0,0,0,1.563-.144c.271-.2.476-.542.813-.592a1.075,1.075,0,0,1,.62.178l2.531,1.331a1.928,1.928,0,0,1,.881.721.666.666,0,0,1-.318.951,3.465,3.465,0,0,1-.395.023.309.309,0,0,0-.29.224.45.45,0,0,0,.062.232.97.97,0,0,1,.015.825.59.59,0,0,1-.716.3c.044.382-.371.649-.741.751a6.7,6.7,0,0,1-2.877-.063,3.944,3.944,0,0,1-1.1-.3c-.164-.08-.316-.182-.481-.257a3.435,3.435,0,0,0-1.469-.167,34.032,34.032,0,0,1-6.84-.81,3.309,3.309,0,0,1-1.208-.395,2.24,2.24,0,0,1-.834-2.19,6.575,6.575,0,0,1,.935-2.275l.528-.93a1.2,1.2,0,0,1,.284-.375C123.1,411.319,124.637,411.771,125.3,412.306Z" transform="translate(-119.363 -375.789)" opacity="0.04"/>
    <path id="Path_1197" data-name="Path 1197" d="M291.773,432.646a16.03,16.03,0,0,1-1.64.453,9.715,9.715,0,0,0-1.485.8,13.278,13.278,0,0,1-4.215,1.244,12.3,12.3,0,0,1-2.663.278,17.129,17.129,0,0,1-3.52-.754,6.732,6.732,0,0,0-3.559-.166,4.006,4.006,0,0,0-2.614,2.509,5.778,5.778,0,0,0-.229,2.222c.243.179.582-.069.714-.34s.2-.6.461-.762c.445.151.553.744.92,1.037a1.662,1.662,0,0,0,.826.273l1.5.213a1.226,1.226,0,0,0,1.042-.169c.127-.123.2-.3.314-.428a1.164,1.164,0,0,1,.992-.274c1.109.111,2.149.83,3.249.659a6.16,6.16,0,0,0,1.092-.347c2.14-.756,4.517-.3,6.744-.729a15.05,15.05,0,0,0,2.475-.765,5,5,0,0,0,1.258-.623,2.648,2.648,0,0,0,1.022-2.349,2.685,2.685,0,0,0-.948-1.74,3.354,3.354,0,0,0-.61-.524C292.5,432.185,292.11,432.488,291.773,432.646Z" transform="translate(-255.721 -394.425)" fill="#a1616a"/>
    <g id="Group_1220" data-name="Group 1220" transform="translate(21.26 15.001)" opacity="0.1">
      <path id="Path_1198" data-name="Path 1198" d="M335.965,210.978c-.165-.146-.205-.368-.347-.53-.3-.342-.894-.3-1.381-.227a2.759,2.759,0,0,1-2.4-.444c-.228-.255-.328-.592-.607-.8-.649-.493-1.766.012-2.481-.405-.624-.364-.584-1.208-1.1-1.677a2.26,2.26,0,0,0-2.131-.174.617.617,0,0,1-.383.043c-.224-.079-.208-.357-.153-.562a12.028,12.028,0,0,1,1.067-2.9,6.108,6.108,0,0,0,.538-1.01,17.76,17.76,0,0,1,.386-1.925,2.657,2.657,0,0,0-.778.691c-.42.626-.257,1.423-.493,2.119a6.1,6.1,0,0,1-.538,1.01,12.027,12.027,0,0,0-1.067,2.9c-.055.205-.071.483.153.562a.617.617,0,0,0,.383-.043,2.245,2.245,0,0,1,2.131.174c.525.474.48,1.316,1.1,1.677.715.417,1.832-.087,2.481.405.278.211.379.549.607.8a2.759,2.759,0,0,0,2.4.444c.487-.069,1.085-.115,1.381.227.142.162.182.384.347.53a.906.906,0,0,0,1.127-.141,2.991,2.991,0,0,0,.472-.645A.734.734,0,0,1,335.965,210.978Z" transform="translate(-324.055 -200.36)"/>
      <path id="Path_1199" data-name="Path 1199" d="M461.387,288.816a2.807,2.807,0,0,0-.177.255,5.349,5.349,0,0,0,1.063-.867,2.1,2.1,0,0,0,.2-.284A5.18,5.18,0,0,0,461.387,288.816Z" transform="translate(-447.68 -279.282)"/>
    </g>
    <path id="Path_1200" data-name="Path 1200" d="M556.48,446.53l.3,28.312,1.381-.2-.3-28.114Z" transform="translate(-501.583 -402.461)" fill="#3f3d56"/>
    <path id="Path_1201" data-name="Path 1201" d="M640.48,498.53l.3,28.312,1.381-.2-.3-28.115Z" transform="translate(-577.297 -449.332)" fill="#3f3d56"/>
    <path id="Path_1202" data-name="Path 1202" d="M996.535,561.3h0l-.006-.544v-.323l-.052-4.98-.082-7.785-.014-.672H995l.007.647.043,4.17.019,1.805h0l.016,1.462.026,2.527.016,1.491h0v.158l.021,1.959.018,1.727.112-.124q.271-.3.531-.616Z" transform="translate(-907.553 -497.804)" fill="#3f3d56"/>
    <path id="Path_1203" data-name="Path 1203" d="M617.769,545.03l-.789,1.18.789,5.375,6.708,1.836h10.851l6.511.394,3.1-2.123-.537-3.646-2.368-3.016Z" transform="translate(-556.115 -491.245)" fill="#6c63ff"/>
    <path id="Path_1204" data-name="Path 1204" d="M721.175,605.48l-.395,3.277s-2.072,6.425,14.6,6.031,13.811-1.7,13.811-1.7l-.1-3.8s.581,1.8-7.892,1.556-16.375-1.031-16.375-1.031S721.865,610.33,721.175,605.48Z" transform="translate(-660.31 -550.515)" fill="#3f3d56"/>
    <path id="Path_1205" data-name="Path 1205" d="M829.852,303.718a4.766,4.766,0,0,0-2.154,2.2,14.21,14.21,0,0,0-1.021,2.959,26.34,26.34,0,0,0-.711,3.232,9.787,9.787,0,0,0,.829,5.737,6.466,6.466,0,0,0,4.479,3.493,8.243,8.243,0,0,0,2.269.027,18.446,18.446,0,0,0,4.006-.883,5.382,5.382,0,0,0,3.372-2.466,5.515,5.515,0,0,0,.363-2.445,26.019,26.019,0,0,0-1.017-6.687,5.7,5.7,0,0,0-.781-1.8,5.516,5.516,0,0,0-1.455-1.282C835.723,304.25,832.69,302.428,829.852,303.718Z" transform="translate(-755.098 -278.126)" fill="#fbbebe"/>
    <path id="Path_1206" data-name="Path 1206" d="M829.852,303.718a4.766,4.766,0,0,0-2.154,2.2,14.21,14.21,0,0,0-1.021,2.959,26.34,26.34,0,0,0-.711,3.232,9.787,9.787,0,0,0,.829,5.737,6.466,6.466,0,0,0,4.479,3.493,8.243,8.243,0,0,0,2.269.027,18.446,18.446,0,0,0,4.006-.883,5.382,5.382,0,0,0,3.372-2.466,5.515,5.515,0,0,0,.363-2.445,26.019,26.019,0,0,0-1.017-6.687,5.7,5.7,0,0,0-.781-1.8,5.516,5.516,0,0,0-1.455-1.282C835.723,304.25,832.69,302.428,829.852,303.718Z" transform="translate(-755.098 -278.126)" opacity="0.05"/>
    <path id="Path_1207" data-name="Path 1207" d="M776.145,355.962a4.478,4.478,0,0,0,.986.986,6.02,6.02,0,0,0,3.285.772,3.035,3.035,0,0,0,2.539-.739,2.956,2.956,0,0,0,.479-1.131,50.194,50.194,0,0,0,1.371-7.475l2.612.009c1.13,4.841,1.038,9.873.939,14.843l-.143,7.249-1.683-.179c-4-.423-8-.846-12.016-.919a68.739,68.739,0,0,0-7.055.233l3.665-10.9a18.039,18.039,0,0,0,1.067-4.34c.161-2.159-.445-4.439.395-6.437a.783.783,0,0,1,.3-.411.865.865,0,0,1,.522-.04c.331.044,1.345,0,1.585.212.355.308.12.354,0,.85a10.379,10.379,0,0,0-.433,2.635A7.782,7.782,0,0,0,776.145,355.962Z" transform="translate(-702.459 -317.953)" fill="#6c63ff"/>
    <path id="Path_1208" data-name="Path 1208" d="M951.294,344.761h0q.66-.876,1.244-1.814c-.2-.422-.414-.835-.587-1.266a12.723,12.723,0,0,1-.566-2.057q-.077-.355-.153-.71a46.659,46.659,0,0,1-1.179-7.8q-.015-.326-.019-.651v-.811c.012-.592.049-1.189.117-1.783.013-.116.028-.233.043-.349a.5.5,0,0,1,.01-.076l6.708-.245h0l.564-.021a2.067,2.067,0,0,0,1.118-.255,2.034,2.034,0,0,0,.592-1.776,26.354,26.354,0,0,0-.556-4.888,7.282,7.282,0,0,0-1.432-3.375c-.669-.764-1.638-1.319-1.986-2.269a10.244,10.244,0,0,0-.329-1.078,3.361,3.361,0,0,0-.706-.845,11.774,11.774,0,0,1-2.259-3.129,9.884,9.884,0,0,0-1.354-2.249c-.026-.029-.051-.055-.078-.081a1.257,1.257,0,0,0-1.554-.332,1.991,1.991,0,0,0-.308.191h0a3.748,3.748,0,0,0-.585.556,13.318,13.318,0,0,0-1.591,2.269,12.6,12.6,0,0,0-.813,1.776,12.25,12.25,0,0,0-.439,1.48c-.085.372-.152.748-.205,1.125a27.354,27.354,0,0,0-.17,4.3c.03,1.318.088,2.639.207,3.952q.044.476.1.952.108.94.268,1.874c.042.238.086.475.134.712.012.063.025.126.038.188l.006.027a16.018,16.018,0,0,1,.3,1.668q.012.106.018.21a8.126,8.126,0,0,1-.008.968c-.023.381-.058.761-.076,1.141a1.858,1.858,0,0,1-.007.2c0,.192,0,.385,0,.577a9.152,9.152,0,0,0,.164,1.37,8.864,8.864,0,0,0,.853,2.411c.037.071.076.141.114.21.5.894,1.132,1.714,1.594,2.628a11.348,11.348,0,0,1,.888,2.586q.1.443.187.888c.092.474.174.951.257,1.428.008.047.017.1.026.142.111.633.229,1.264.38,1.882.088.36.186.715.3,1.064Z" transform="translate(-862.312 -281.261)" fill="#464353"/>
    <path id="Path_1209" data-name="Path 1209" d="M830.087,569.209c0,.089-.006.178-.01.267a12.626,12.626,0,0,1-.119,1.293,8.415,8.415,0,0,1-.427,1.716,5.786,5.786,0,0,1-.509,1.047,4.83,4.83,0,0,1-.633.816,5.057,5.057,0,0,1-2.269,1.071,5.584,5.584,0,0,0-1.094.447c-.062.035-.123.072-.182.111l-1.032.684a3.086,3.086,0,0,0-.871.747,1.612,1.612,0,0,0-.1.167,3.778,3.778,0,0,0-.3.911c-.537,2.235-1.074,4.473-1.442,6.742-.025.15-.048.3-.074.452l-.009.047a.247.247,0,0,0-.016-.033,59.362,59.362,0,0,1-8.2,4.19l-.613-5.13a6.207,6.207,0,0,1-.063-1.261c.058-.664.328-1.293.4-1.955a3.332,3.332,0,0,0-.352-1.881,2.057,2.057,0,0,1-.289-.7.434.434,0,0,1,.371-.507.911.911,0,0,0,.155-.814,2.371,2.371,0,0,0-.138-.451,1.9,1.9,0,0,1-.236-1.282.479.479,0,0,0,.049-.247.04.04,0,0,0,0-.016c-.034-.11-.165-.159-.233-.253-.128-.175,0-.412.079-.614a2.343,2.343,0,0,0,.132-.672c.011-.127.019-.255.033-.382a3.848,3.848,0,0,1,.092-.507,4,4,0,0,1,1.621-2.32c.384-.258.811-.447,1.2-.691a11,11,0,0,0,1.146-.888q1.3-1.085,2.71-2.046a34.245,34.245,0,0,1,3.129-1.9q.345-.186.691-.363.376-.2.757-.374a3.7,3.7,0,0,1,2.634.016c.377.107.749.236,1.108.352a5.132,5.132,0,0,1,1.006.452,3.711,3.711,0,0,1,1.727,2.03.11.11,0,0,1,0,.017A5.167,5.167,0,0,1,830.087,569.209Z" transform="translate(-742.423 -513.484)" fill="#f86d70"/>
    <path id="Path_1210" data-name="Path 1210" d="M830.087,569.209c0,.089-.006.178-.01.267a12.626,12.626,0,0,1-.119,1.293,8.415,8.415,0,0,1-.427,1.716,5.786,5.786,0,0,1-.509,1.047,4.83,4.83,0,0,1-.633.816,5.057,5.057,0,0,1-2.269,1.071,5.584,5.584,0,0,0-1.094.447c-.062.035-.123.072-.182.111l-1.032.684a3.086,3.086,0,0,0-.871.747,1.612,1.612,0,0,0-.1.167,3.778,3.778,0,0,0-.3.911c-.537,2.235-1.074,4.473-1.442,6.742-.025.15-.048.3-.074.452l-.009.047a.247.247,0,0,0-.016-.033,59.362,59.362,0,0,1-8.2,4.19l-.613-5.13a6.207,6.207,0,0,1-.063-1.261c.058-.664.328-1.293.4-1.955a3.332,3.332,0,0,0-.352-1.881,2.057,2.057,0,0,1-.289-.7.434.434,0,0,1,.371-.507.911.911,0,0,0,.155-.814,2.371,2.371,0,0,0-.138-.451,1.9,1.9,0,0,1-.236-1.282.479.479,0,0,0,.049-.247.04.04,0,0,0,0-.016c-.034-.11-.165-.159-.233-.253-.128-.175,0-.412.079-.614a2.343,2.343,0,0,0,.132-.672c.011-.127.019-.255.033-.382a3.848,3.848,0,0,1,.092-.507,4,4,0,0,1,1.621-2.32c.384-.258.811-.447,1.2-.691a11,11,0,0,0,1.146-.888q1.3-1.085,2.71-2.046a34.245,34.245,0,0,1,3.129-1.9q.345-.186.691-.363.376-.2.757-.374a3.7,3.7,0,0,1,2.634.016c.377.107.749.236,1.108.352a5.132,5.132,0,0,1,1.006.452,3.711,3.711,0,0,1,1.727,2.03.11.11,0,0,1,0,.017A5.167,5.167,0,0,1,830.087,569.209Z" transform="translate(-742.423 -513.484)" opacity="0.1"/>
    <path id="Path_1211" data-name="Path 1211" d="M898.3,446.522a.185.185,0,1,0-.333.162l-.1.048,2.942,6.029.532-.259-2.942-6.033Z" transform="translate(-820.004 -407.137)" fill="#3f3d56"/>
    <circle id="Ellipse_132" data-name="Ellipse 132" cx="6.313" cy="6.313" r="6.313" transform="translate(75.662 20.443)" fill="#fbbebe"/>
    <path id="Path_1212" data-name="Path 1212" d="M891.519,174.506a8.387,8.387,0,0,0-.223-1.489,8.742,8.742,0,0,0-2.216-4.311,8.635,8.635,0,0,0-.257-.828.17.17,0,0,0-.007-.02,9.263,9.263,0,0,0-1.49-2.641,2.088,2.088,0,0,0-1.439-.931,1.167,1.167,0,0,1-.493-.053.888.888,0,0,1-.275-.282,2.584,2.584,0,0,0-2.5-.936l-.061.013c-.034.007-.069.015-.1.024l-.124.036q.068.112.133.228.176.313.326.639.124.272.23.553a4.94,4.94,0,0,0-2.585,1.515l-1.77,1.606-.009.009-.051.049c-.013.013-.026.026-.037.039a.084.084,0,0,0-.013.014c-.015.016-.029.033-.042.049a.751.751,0,0,0-.066.1.363.363,0,0,0-.026.046.1.1,0,0,0-.007.015.361.361,0,0,0-.017.041.015.015,0,0,0,0,.006.23.23,0,0,0-.007.025.3.3,0,0,0,.017.209l1.167.013h.137c.006.156.011.313.017.469a6.644,6.644,0,0,0-.533.444,5.791,5.791,0,0,0-.52.548,7.571,7.571,0,0,0-1.657,4.567v.6c0,.1.009.2.017.3a.739.739,0,0,0,.1.366.343.343,0,0,0,.028.036.68.68,0,0,0,.209.154l.085.041h0c.042.021.083.04.122.063.372.21.592.616.93.876.02.015.039.03.059.042l.044.03.028.018.037.022a.794.794,0,0,0,.076.04h0l.047.024h.008c.039.018.079.035.119.049l.056.02.017.006c.016,0,.033.011.049.015l.1.027.1.022c.038.007.078.014.117.019l.058.008.059.006q.141.013.284.015h0a7.1,7.1,0,0,0,.895-.062l2.517-.3a5.425,5.425,0,0,1,1.717-.016,11.322,11.322,0,0,1,1.381.486c.1.036.209.07.315.1.038.011.078.023.117.033l.054.014.126.031c.045.011.091.022.136.031.064.014.127.026.191.037.043.009.088.016.132.024h.009l.126.02h.031l.094.013c.045.007.091.013.137.018q.151.019.3.033c.163.016.327.028.493.037l.164.01.164.008.493.022h.091a2.545,2.545,0,0,0,.614-.032c.036-.007.07-.015.1-.025s.063-.02.1-.032a1.689,1.689,0,0,0,.828-.818c.039-.074.076-.148.109-.224s.064-.153.092-.23c.034-.1.064-.192.09-.291.008-.027.015-.053.021-.081s.02-.082.028-.123c.025-.113.043-.228.057-.343a1.063,1.063,0,0,1,.013-.11c.009-.1.016-.19.02-.287v-.221C891.526,174.713,891.519,174.608,891.519,174.506Zm-2.529-5.889c-.08-.075-.162-.147-.245-.215a1.019,1.019,0,0,1,.244.215Z" transform="translate(-801.211 -151.658)" fill="#464353"/>
    <path id="Path_1213" data-name="Path 1213" d="M713.629,304.6a6.7,6.7,0,0,0-2.213-.257,3.066,3.066,0,0,0-1.22.677,14.838,14.838,0,0,0-3.43,3.921,2.07,2.07,0,0,0-.317.742,1.966,1.966,0,0,0,.136.915c.675,1.994,2.118,3.659,2.775,5.658a12.174,12.174,0,0,1-.058,6.556,27.4,27.4,0,0,1-3.042,7.566,4.317,4.317,0,0,1-.7.959c-.359.345-.841.592-1.055,1.044a4.681,4.681,0,0,0-.2.633c-.2.592-.675,1.1-.721,1.723a3.934,3.934,0,0,0,.328,1.381,3.806,3.806,0,0,1-.07,2.377c-.5,1.371-1.808,2.618-1.428,4.028a3.282,3.282,0,0,0,2.186-1.347,2.4,2.4,0,0,1,.449-.813c.475-.4,1.282-.038,1.787-.409a1.13,1.13,0,0,0,.225-1.3c-.17-.444-.462-.835-.592-1.291a13.63,13.63,0,0,1,.069-2.546c-.031-.395-.153-.772-.162-1.165a2.736,2.736,0,0,1,.967-2,8.035,8.035,0,0,1,1.937-1.2l2.581-1.282a3.923,3.923,0,0,0,2.269-2.027,4.106,4.106,0,0,0,.123-1.163c.088-5.969,1.583-11.818,3.07-17.6a21.8,21.8,0,0,1,.809-2.656c.343-.86,1.015-1.551,1.357-2.35C717.506,303.138,715.692,304.856,713.629,304.6Z" transform="translate(-643.771 -278.188)" fill="#464353"/>
    <path id="Path_1214" data-name="Path 1214" d="M769.786,558.915c.228,1.381.367,2.792.475,4.2a48,48,0,0,1-5.63,3.94c-.111.068-.222.135-.333.2l-.009.047a.254.254,0,0,0-.016-.033,1.485,1.485,0,0,0-.742-.732q-1.092-2.293-2.182-4.587a12.05,12.05,0,0,1-.986-2.55.4.4,0,0,0-.012-.057c-.15-.69-.185-1.408-.284-2.107a6.086,6.086,0,0,0-.269-1.178c-.118-.34-.281-.671-.425-1a3.34,3.34,0,0,1-.333-1.269.829.829,0,0,0-.06-.414,1.074,1.074,0,0,0-.269-.26,1.027,1.027,0,0,1-.331-.938c-.592.031-.925.667-1.163,1.206a6.577,6.577,0,0,1-.844,1.48,2.805,2.805,0,0,1-.935.778c-.033.016-.065.032-.1.045a4.626,4.626,0,0,1-2.678.071,5.021,5.021,0,0,1-2.215-.806l-.067-.053a2.9,2.9,0,0,1-.493-.527A5.733,5.733,0,0,1,749,551.8c-.012-.085-.024-.17-.034-.255a9.487,9.487,0,0,1-.074-1.922c.012-.158.029-.316.049-.473.014-.1.029-.205.045-.308a.027.027,0,0,1,0-.009c.026-.163.053-.327.081-.493a4.535,4.535,0,0,1,.493-1.615,3.06,3.06,0,0,1,.726-.777c.107-.084.216-.164.327-.241.18-.124.364-.243.552-.354a9.534,9.534,0,0,1,1.48-.72c.122-.047.247-.092.371-.134a2.911,2.911,0,0,1,1.507-.119,7.928,7.928,0,0,0,1.349.079,34,34,0,0,0,3.474-.387,7.55,7.55,0,0,1,4.726.592c.067.038.132.079.2.121a5.845,5.845,0,0,1,1.7,1.792c.1.149.184.3.269.457a11.628,11.628,0,0,1,.53,1.1,1.361,1.361,0,0,1,.147.592.772.772,0,0,1-.016.116c-.027.14-.08.276-.1.418-.062.538.395.986.565,1.5a7.352,7.352,0,0,1,.161,1.042,5.42,5.42,0,0,0,.548,1.381,17.273,17.273,0,0,1,.878,2.207c.172.526.319,1.06.448,1.6q.063.259.119.52C769.621,557.977,769.708,558.444,769.786,558.915Z" transform="translate(-685.702 -495.058)" fill="#f86d70"/>
    <path id="Path_1215" data-name="Path 1215" d="M593.932,449.456v.691l-.127,0-.142,0-1.586-.02-3.908-.051-1.1-.014-.284,0-1.646-.021L582.82,450l-4.922-.064-8.542-.111-3.083-.039-1.237-.016-1.138-.015-.709-.01-.672-.009-4.981-.064-1.381-.018-.3,0-.2-.5-1.42-3.661-.259-.669.2-.789.888.592.546.068,9,1.119,1.689.21,3.581.446,3.508.436,1.375.171,8.137,1.012,2.274.283,1.882.234,6.692.833Z" transform="translate(-499.33 -400.208)" fill="#3f3d56"/>
    <path id="Path_1216" data-name="Path 1216" d="M555.98,444.03l1.776,4.636,37.979.789v-5.031Z" transform="translate(-501.133 -400.208)" fill="#504f60"/>
    <path id="Path_1217" data-name="Path 1217" d="M575.98,496.03l.3,28.312,1.381-.2-.3-28.114Z" transform="translate(-519.16 -447.078)" fill="#3f3d56"/>
    <path id="Path_1218" data-name="Path 1218" d="M1050.277,550.461h-.142a31.212,31.212,0,0,1-1.137,5.208l-.449-5.228-.019-.223,1.659-.191.055-.006Z" transform="translate(-955.802 -500.526)" fill="#3f3d56"/>
    <path id="Path_1219" data-name="Path 1219" d="M729.92,454.9l-14.452.3-4.488-1.48,12.035-.691Z" transform="translate(-640.842 -408.32)" fill="#fff"/>
    <path id="Path_1220" data-name="Path 1220" d="M820.378,456.7a.968.968,0,0,0-.395.281,1.042,1.042,0,0,0-.147.448l-.243,1.447a.64.64,0,0,0,.019.4c.063.121.247.184.338.084a1.3,1.3,0,0,0,.178.816.569.569,0,0,0,.743.191.481.481,0,0,0,.725.112c-.14.047-.15.261-.05.37a.644.644,0,0,0,.4.161,9.844,9.844,0,0,0,5.12-.644,8.947,8.947,0,0,0-.29-2.142,2.157,2.157,0,0,0-.532-1.316,5.717,5.717,0,0,0-3.665-.789A6.314,6.314,0,0,0,820.378,456.7Z" transform="translate(-749.429 -415.872)" fill="#fbbebe"/>
    <path id="Path_1221" data-name="Path 1221" d="M879.23,451.461c-3.568.068-7.21.126-10.615-.942a7.2,7.2,0,0,1-.065,3.834l16.683,1.381a28.047,28.047,0,0,0,4.33.223c.69-.167-5.786-2.3-5.524-2.959.719-1.818,3.128-2.883,1.393-2.952C883.242,449.959,881.437,451.419,879.23,451.461Z" transform="translate(-793.577 -410.41)" opacity="0.1"/>
    <path id="Path_1222" data-name="Path 1222" d="M880.231,453.461c-3.568.068-7.21.126-10.615-.942a7.2,7.2,0,0,1-.065,3.834l16.683,1.381a27.444,27.444,0,0,0,4.33.223c.69-.172.528-1.017.789-1.677.719-1.818-3.185-4.166-4.92-4.234C884.242,451.959,882.437,453.419,880.231,453.461Z" transform="translate(-794.478 -412.213)" fill="#464353"/>
    <path id="Path_1223" data-name="Path 1223" d="M858.874,463.7a.966.966,0,0,1,.395.281,1.056,1.056,0,0,1,.148.448l.243,1.447a.647.647,0,0,1-.019.4c-.063.121-.248.184-.338.084a1.306,1.306,0,0,1-.177.816.57.57,0,0,1-.744.191.481.481,0,0,1-.725.112c.14.047.151.261.051.37a.647.647,0,0,1-.4.161,9.839,9.839,0,0,1-5.119-.644,8.9,8.9,0,0,1,.29-2.142,2.158,2.158,0,0,1,.532-1.316,5.716,5.716,0,0,1,3.665-.789A6.313,6.313,0,0,1,858.874,463.7Z" transform="translate(-778.794 -422.182)" fill="#fbbebe"/>
    <path id="Path_1224" data-name="Path 1224" d="M670.414,365.454a6.316,6.316,0,0,0-.867,1.346,6.54,6.54,0,0,0-.277,3.023,1.763,1.763,0,0,0,.2.843,1.425,1.425,0,0,0,.515.439,7.289,7.289,0,0,0,2.831.739q2.243.249,4.5.3c3.731.091,7.519-.214,11.153.631a2.794,2.794,0,0,1-.2-2.368,8.06,8.06,0,0,1,1.21-2.126c-1.663-.527-3.447.3-5.189.214-1.788-.084-3.444-1.118-5.234-1.117a4.762,4.762,0,0,1-1.15-.044.958.958,0,0,1-.77-.759,1.1,1.1,0,0,0,1.128-.749c.2-.448.233-.954.424-1.4.476-1.122,1.764-1.641,2.565-2.565a.628.628,0,0,0,.044-.953,13.638,13.638,0,0,0-2.5-2.072c-.29-.241-.875-1.148-1.2-1.232-.6-.155-1.116.717-1.508,1.142Q673.114,361.977,670.414,365.454Z" transform="translate(-613.911 -327.074)" fill="#464353"/>
    <path id="Path_1225" data-name="Path 1225" d="M882.39,434.81a3.264,3.264,0,0,1,.66.654,1.126,1.126,0,0,1,.206.882,1.318,1.318,0,0,1,.822-1.364Z" transform="translate(-806.052 -396.681)" opacity="0.07"/>
    <g id="Group_1221" data-name="Group 1221" transform="translate(75.795 11.357)" opacity="0.1">
      <path id="Path_1226" data-name="Path 1226" d="M931.559,164.323a8.552,8.552,0,0,0-.4-.9,2.418,2.418,0,0,0-.288.074,8.336,8.336,0,0,1,.457.871A1.657,1.657,0,0,1,931.559,164.323Z" transform="translate(-925.544 -163.42)"/>
      <path id="Path_1227" data-name="Path 1227" d="M995.87,212c.027.022.052.046.078.069a.136.136,0,0,0-.007-.019Z" transform="translate(-984.132 -207.208)"/>
      <path id="Path_1228" data-name="Path 1228" d="M891.983,210.9c.051-.04.1-.083.154-.122l-.016-.469-1.054-.011c-.171.157-.352.382-.252.592Z" transform="translate(-889.415 -205.675)"/>
      <path id="Path_1229" data-name="Path 1229" d="M890.963,279.4a1.684,1.684,0,0,1-.828.818,2.244,2.244,0,0,1-.9.085,10.563,10.563,0,0,1-3.08-.433,10.861,10.861,0,0,0-1.381-.487,5.4,5.4,0,0,0-1.717.017l-2.518.3a2.953,2.953,0,0,1-2.163-.3c-.339-.26-.558-.666-.93-.875a1.183,1.183,0,0,1-.445-.3.739.739,0,0,1-.1-.366c-.008-.1-.013-.207-.017-.311a8.34,8.34,0,0,0,.017.9.739.739,0,0,0,.1.366,1.182,1.182,0,0,0,.445.3c.372.209.592.615.93.875a2.933,2.933,0,0,0,2.163.3l2.518-.3a5.4,5.4,0,0,1,1.717-.017,11.158,11.158,0,0,1,1.381.487,10.451,10.451,0,0,0,3.08.433,2.261,2.261,0,0,0,.9-.085,1.684,1.684,0,0,0,.828-.818,4.187,4.187,0,0,0,.426-2.215,3.853,3.853,0,0,1-.426,1.623Z" transform="translate(-876.877 -266.282)"/>
    </g>
    <path id="Path_1230" data-name="Path 1230" d="M937.56,179l1.381,1.282S937.757,179.789,937.56,179Z" transform="translate(-855.779 -166.106)" opacity="0.1"/>
  </g>
</svg>
