<svg xmlns="http://www.w3.org/2000/svg" xmlns:xlink="http://www.w3.org/1999/xlink" width="378" height="281.727" viewBox="0 0 378 281.727">
  <defs>
    <linearGradient id="linear-gradient" x1="0.5" y1="1" x2="0.5" gradientUnits="objectBoundingBox">
      <stop offset="0" stop-color="gray" stop-opacity="0.251"/>
      <stop offset="0.54" stop-color="gray" stop-opacity="0.122"/>
      <stop offset="1" stop-color="gray" stop-opacity="0.102"/>
    </linearGradient>
  </defs>
  <g id="undraw_studying_s3l7" transform="translate(-0.012 -0.057)">
    <path id="Path_1231" data-name="Path 1231" d="M442.26,218.6c-.068.4-.136.8-.211,1.2A147.142,147.142,0,0,1,429.8,258.581q-.289.6-.589,1.2a110.844,110.844,0,0,1-13.8,21.279,44.156,44.156,0,0,1-9.911,9.3c-5.318,3.391-11.535,4.768-17.645,5.9-6.349,1.174-12.781,2.141-19.2,3.212q-3.412.557-6.781,1.167c-6.2,1.121-12.352,2.416-18.359,4.133a95.436,95.436,0,0,0-21.414,8.808q-.814.464-1.61.953c-.532.321-1.071.65-1.588.985s-1.039.667-1.553,1.006l-.792.535c-.261.171-.518.357-.774.528-.764.521-1.517,1.071-2.27,1.6l-.029.021q-.744.535-1.481,1.071c-2.78,2.059-5.5,4.215-8.209,6.378l-1.71,1.367q-1.324,1.049-2.648,2.1c-.518.41-1.042.817-1.563,1.224-.378.3-.753.592-1.139.885-1.931,1.488-3.887,2.944-5.882,4.336-.475.332-.957.664-1.428.989a75.271,75.271,0,0,1-12.684,6.988l-.057.025a50.325,50.325,0,0,1-6.738,2.323,40.348,40.348,0,0,1-3.969.86,35.077,35.077,0,0,1-10.761.186c-7.027-1-13.612-4.283-20.622-5.382-14.462-2.245-28.506,5-42.115,10.682q-5,2.091-10.1,3.926-3.383,1.221-6.8,2.323a214.063,214.063,0,0,1-42.661,9.126,98.582,98.582,0,0,1-18.113.489,61.2,61.2,0,0,1-6.781-.882c-7.627-1.428-14.747-4.458-20.483-9.993-4.765-4.529-8.127-10.45-10.689-16.628q-1.545-3.722-2.723-7.616a84.942,84.942,0,0,1-2.773-12.431c-.139-.949-.264-1.9-.357-2.855q-.278-2.452-.414-4.925a85.3,85.3,0,0,1,2.538-26.054c2.431-9.419,6.485-18.438,8.269-27.946.075-.4.143-.8.211-1.2q.357-2.141.542-4.361c.9-11.628-2.58-23.01-5.329-34.409-.1-.4-.193-.8-.286-1.2q-.446-1.9-.846-3.794c-2.545-12.056-3.241-24.958-.981-36.99.071-.4.153-.8.236-1.2a59.832,59.832,0,0,1,8.337-20.854,72.269,72.269,0,0,1,15.7-16.614q4.336-3.462,8.969-6.478,3.33-2.163,6.781-4.094A113.023,113.023,0,0,1,175.51,114.3q1.667.086,3.326.228,1.742.15,3.473.357c13.5,1.56,26.639,5.425,39.7,9.654q6.563,2.141,13.106,4.283,2.912.949,5.821,1.874c9.512,3,19.18,5.71,28.938,7.752q3.394.714,6.781,1.3a160.275,160.275,0,0,0,23.766,2.448q4.64.114,9.28-.1,2.345-.107,4.693-.314c16.171-1.385,31.764-6.028,47.422-10.389,2.263-.632,4.529-1.26,6.781-1.867,2.977-.8,5.957-1.574,8.948-2.288,18.623-4.472,35.219-1.9,52.533,7.32,3.926,2.1,7.852,4.622,10.279,8.534s3.016,8.755,3.466,13.416c.635,6.631,1.071,13.355,1.21,20.108,0,.4,0,.8.025,1.2A213.938,213.938,0,0,1,442.26,218.6Z" transform="translate(-70.44 -93.102)" fill="#6c63ff" opacity="0.1"/>
    <path id="Path_1232" data-name="Path 1232" d="M326.384,258.836h-1.217v1.2h1.378Zm-13.794,0a.076.076,0,0,0,0,.029l-.107.992v.178h10.564v-.071l.753-1.128Zm-28.249,0V220.052h12.135c-.129-.107-.261-.214-.4-.314l-.178-.136c-.075-.061-.15-.118-.228-.171s-.264-.189-.4-.282-.225-.153-.357-.228l-.082-.054H284.34v-2.124l-.282.136-.3.168h-.021l-.064.039-.186.121c-.064.039-.129.079-.189.121-.186.125-.357.261-.553.4l-.178.143c-.121.093-.236.189-.357.286-.475.389-.942.8-1.428,1.171-.121.1-.243.189-.357.278a9.226,9.226,0,0,1-.807.528,3.834,3.834,0,0,1-.357.2l-.2.093-.182.079h0a7.579,7.579,0,0,1-1.328.421v37.914h-18.2a.548.548,0,0,0,.036.125c.1.357.2.714.3,1.071h17.874v41.576h.278l.318.021.578.043.935.093.421.05.464.057h.068c.268.036.539.079.814.121l.175.029.393.064.564.1h0l1.353-.071h0l.186.039a1.085,1.085,0,0,1,.228.046V260.035h28.128v-.178l.107-.992a.08.08,0,0,1,0-.029Zm42.043,0h-1.217v1.2h1.378Zm-14.555,0-.121,1.2h11.753l.8-1.2Zm-27.482,0V220.052h12.135c-.128-.107-.261-.214-.4-.314l-.178-.136c-.075-.061-.15-.118-.228-.171s-.264-.189-.4-.282-.225-.153-.357-.228l-.082-.054h-10.5v-2.124l-.282.136-.3.168h-.021l-.064.039-.186.121c-.064.039-.129.079-.189.121-.186.125-.357.261-.553.4l-.178.143c-.121.093-.236.189-.357.286-.475.389-.942.8-1.428,1.171-.121.1-.243.189-.357.278a9.226,9.226,0,0,1-.807.528,3.834,3.834,0,0,1-.357.2l-.2.093-.182.079h0a7.579,7.579,0,0,1-1.328.421v37.914h-18.2a.548.548,0,0,0,.036.125c.1.357.2.714.3,1.071h17.87V301.6l.278.018.318.021.578.043.935.093.421.05.464.057h.068c.268.036.539.079.814.121l.175.029.393.064.564.1h0l1.353-.071h0l.186.039a1.081,1.081,0,0,1,.228.046V260.035h27.378l.128-1.2Zm91.96-80.767h76.46c0-.4,0-.8-.025-1.2H376.307V129.78c-2.27.607-4.536,1.235-6.781,1.867V176.87H286.368l-.211-.228.318-.357h0L317.4,142.339q-4.64.214-9.279.1l-23.784,26.09V140q-3.4-.589-6.781-1.3v28.517L242.786,129.07c-4.365-1.428-8.73-2.88-13.105-4.283l47.265,51.855-.211.228H189.982V115.125q-1.735-.2-3.473-.357-1.66-.146-3.326-.228v62.33H122.41V128.83q-3.458,1.927-6.781,4.094V176.87H82.576c-.082.4-.164.8-.236,1.2H115.6v40.783H84.182c.093.4.189.8.286,1.2h31.147v38.785H89.243c-.068.4-.136.8-.211,1.2h26.582V368.481a61.182,61.182,0,0,0,6.781.882V260.035h60.788v99.712q3.419-1.11,6.8-2.323V260.035h87.563v87.12a50.329,50.329,0,0,0,6.738-2.323l.057-.025V260.035H369.5V300.89q3.387-.61,6.781-1.167V260.035h60.556q.3-.6.589-1.2H376.307V220.052H449.7c.075-.4.143-.8.211-1.2h-73.6Zm-253.894,0h60.77v40.783H122.41Zm0,80.767V220.052h60.77v38.785Zm67.573-80.767h87.559v40.783H189.982Zm0,80.767V220.052h87.559v38.785Zm179.523,0H284.34V220.052H369.5Zm0-39.973H284.34v-39.7l1.2-1.092H369.5Zm-56.915,39.973a.079.079,0,0,0,0,.029l-.107.992v.178H323.05v-.071l.753-1.128Zm13.794,0H325.17v1.2h1.378Zm-42.043,0V220.052h12.135c-.129-.107-.261-.214-.4-.314l-.178-.136c-.075-.061-.15-.118-.228-.171s-.264-.189-.4-.282-.225-.153-.357-.228l-.082-.054H284.34v-2.124l-.282.136-.3.168h-.021l-.064.039-.186.121c-.064.039-.129.079-.189.121-.186.125-.357.261-.553.4l-.178.143c-.121.093-.236.189-.357.286-.475.389-.942.8-1.428,1.171-.121.1-.243.189-.357.278a9.226,9.226,0,0,1-.807.528,3.834,3.834,0,0,1-.357.2l-.2.093-.182.079h0a7.579,7.579,0,0,1-1.328.421v37.914h-18.2a.548.548,0,0,0,.036.125c.1.357.2.714.3,1.071h17.874v41.576h.278l.318.021.578.043.935.093.421.05.464.057h.068c.268.036.539.079.814.121l.175.029.393.064.564.1h0l1.353-.071h0l.186.039a1.085,1.085,0,0,1,.228.046V260.035h28.128v-.178l.107-.992a.08.08,0,0,1,0-.029Z" transform="translate(-78.085 -93.357)" fill="#6c63ff" opacity="0.1"/>
    <path id="Path_1233" data-name="Path 1233" d="M272.429,209.268h.542a1.3,1.3,0,0,1-.646-1.046h0c0-.828,1.014-1.5,2.252-1.5h15.757c1.239,0,2.252.675,2.252,1.5h0c0,.824-1.014,1.5-2.252,1.5h-.525a1.3,1.3,0,0,1,.642,1.046c0,.714-.735,1.3-1.72,1.46h4.536c1.235,0,2.248.675,2.248,1.5s-1.014,1.5-2.248,1.5H277.493c-1.235,0-2.248-.675-2.248-1.5,0-.714.735-1.3,1.72-1.46h-4.536c-1.235,0-2.248-.675-2.248-1.5S271.186,209.268,272.429,209.268Z" transform="translate(-198.884 -152.638)" fill="#6c63ff" opacity="0.1"/>
    <path id="Path_1234" data-name="Path 1234" d="M750.949,249.338h.528a1.3,1.3,0,0,1-.646-1.049h0c0-.824,1.014-1.5,2.252-1.5H768.84c1.238,0,2.252.675,2.252,1.5h0c0,.828-1.014,1.5-2.252,1.5h-.525a1.306,1.306,0,0,1,.642,1.049c0,.714-.735,1.3-1.72,1.456h4.536c1.235,0,2.248.678,2.248,1.5s-1.014,1.5-2.248,1.5H756.02c-1.235,0-2.248-.675-2.248-1.5,0-.714.735-1.3,1.72-1.456h-4.543c-1.235,0-2.249-.678-2.249-1.5S749.721,249.338,750.949,249.338Z" transform="translate(-506.618 -178.406)" fill="#6c63ff" opacity="0.1"/>
    <path id="Path_1235" data-name="Path 1235" d="M204.7,420.8h.528a1.306,1.306,0,0,1-.642-1.049h0c0-.824,1.01-1.5,2.249-1.5H222.59c1.238,0,2.252.678,2.252,1.5h0c0,.828-1.014,1.5-2.252,1.5h-.525a1.306,1.306,0,0,1,.642,1.049c0,.714-.735,1.3-1.72,1.456h4.536c1.238,0,2.248.674,2.248,1.5s-1.01,1.5-2.248,1.5H209.763c-1.235,0-2.248-.678-2.248-1.5,0-.714.739-1.3,1.72-1.46H204.7c-1.235,0-2.249-.675-2.249-1.5S203.464,420.8,204.7,420.8Z" transform="translate(-155.327 -288.672)" fill="#6c63ff" opacity="0.1"/>
    <path id="Path_1236" data-name="Path 1236" d="M673.591,713.44q-1.324,1.049-2.648,2.1c-.518.41-1.042.817-1.563,1.224-.378.3-.753.593-1.138.885-1.931,1.488-3.887,2.944-5.882,4.336-.475.332-.956.664-1.427.989a75.267,75.267,0,0,1-12.684,6.988l-.057.025V713.44Z" transform="translate(-441.981 -478.507)" fill="#65617d"/>
    <path id="Path_1237" data-name="Path 1237" d="M536.941,374.568l.4-12.331c-.239-.186-.482-.357-.714-.528a65.734,65.734,0,0,0-.628-11c-1.613-12.331-12.088-12.6-15.044-10.054a7.136,7.136,0,0,1-1.274.878c.268-1.759.6-3.523.839-5.264,1.292-9.394-.714-19.962-8-26.033-3.051-2.538-6.781-4.1-10.132-6.221-6-3.787-10.746-9.379-16.817-13.066s-14.6-5.068-19.894-.328c-2.052,1.835-3.376,4.379-5.482,6.149-3.926,3.3-10.047,3.516-13.473,7.2h0c-.171.186-.335.375-.492.575-2.855,3.662-2.074,8.855-1.164,13.4,1.1,5.468.642,9.851,5.332,11.421.018.218.032.435.057.65a23.166,23.166,0,0,0,10.193,16.674l-.76.271c-2.027.714-3.851,1.406-5.018,1.881-4.283,1.745-13.3,4.019-13.3,4.019s-.214,2.57-.175,6.36c-3.005,3.266-8.02,9-9.494,12.406-2.141,4.961-14.24,19.169-17.463,21.314s-6.717,4.69-6.717,4.69-5.1,2.816-7.52,3.084c-1.674.186-6.853-.807-6.853-.807s-20.683-25.34-19.341-5.9,17.863,20.1,17.863,20.1l16.657-.268s9,1.206,13.031-2.141c3.441-2.855,21.271-18.52,27-25.626.132.146.264.289.4.428,0,0,2.281-2.948,2.552,0s-1.481,4.283-.539,5.354,3.762,4.825,3.894,6.3-3.758,7.495,2.82,12.063c.1.071.214.139.335.207,1.174,2.673,4.907,5.289,4.907,5.289l20.147-.268,38.014,2.948s1.131-1,2.662-2.623c2.045,1.877,4.883,3.487,8.08,2.5,0,0,4.568-5.493,4.7-9.112,0,0-2.955-7.641-4.283-9.918s.942-7.238.942-7.238,1.61-4.825,2.552-4.825.268-3.212.268-3.212a3.9,3.9,0,0,1-.4-3.619A34.635,34.635,0,0,0,536.941,374.568Z" transform="translate(-265.615 -204.649)" fill="url(#linear-gradient)"/>
    <path id="Path_1238" data-name="Path 1238" d="M693.027,460.8l-1.428,1.67h0l-5.768,6.717-7.534.457-12.06.742s-16.26-19.594-13.205-23.859a7.807,7.807,0,0,0,1.071-5.486c-.028-.264-.068-.528-.114-.789a22.794,22.794,0,0,0-1.9-5.853l.4-.182.257-.118,14.219-6.489,3.519-1.606a9.5,9.5,0,0,0,.964,2.777c.068.136.143.271.221.4,4.85,8.03,20.4,2.952,20.4,2.952Z" transform="translate(-444.489 -293.662)" fill="#ee8e9e"/>
    <path id="Path_1239" data-name="Path 1239" d="M781.088,456.66a23.445,23.445,0,0,1-.9,6.96l-20.126,3.066-.753-5.225-2.98-20.633,2.8-2.8a7.47,7.47,0,0,0,6.4-1.6c2.93-2.534,13.327-2.266,14.926,9.993a67.864,67.864,0,0,1,.635,10.236Z" transform="translate(-511.525 -299.543)" fill="#ee8e9e"/>
    <path id="Path_1240" data-name="Path 1240" d="M791.932,617.2s4.529-5.464,4.665-9.062l-4.533-7.6-4-4.283L780.6,610.672S785.532,619.2,791.932,617.2Z" transform="translate(-527.133 -403.149)" fill="#dfe5ee"/>
    <path id="Path_1241" data-name="Path 1241" d="M791.932,617.2s4.529-5.464,4.665-9.062l-4.533-7.6-4-4.283L780.6,610.672S785.532,619.2,791.932,617.2Z" transform="translate(-527.133 -403.149)" opacity="0.1"/>
    <path id="Path_1242" data-name="Path 1242" d="M298.834,699.923c-.378.3-.753.592-1.139.885-1.931,1.488-3.887,2.945-5.882,4.337-.475.332-.957.664-1.428.989H176.534l-33.685-1.206L115.76,704.7l-6.781-.357-33.834-1.785a84.942,84.942,0,0,1-2.787-12.442c-.139-.949-.264-1.9-.357-2.855l36.965,2.049,6.781.382,60.774,3.391,6.8.378,87.563,4.89,6.738.378h.057Z" transform="translate(-71.435 -461.671)" fill="#d48a9b"/>
    <path id="Path_1243" data-name="Path 1243" d="M343.75,632.417a95.439,95.439,0,0,0-21.414,8.808c-.539.311-1.071.628-1.61.953s-1.071.65-1.588.985-1.039.667-1.553,1.006l-.792.535-.775.528c-.764.525-1.517,1.071-2.27,1.6l-.029.021q-.744.535-1.481,1.071c-2.78,2.059-5.5,4.215-8.209,6.378q-.857.685-1.717,1.367l-2.641,2.1c-.518.41-1.042.817-1.563,1.224-.378.3-.753.593-1.139.885l-19.987-.953h-.057l-6.738-.314-87.6-4.151-6.8-.325-60.774-2.887-6.781-.325L71.611,649.2c-.139-.949-.264-1.9-.357-2.855q-.278-2.452-.414-4.925l37.389-13.206,6.781-2.4,6.16-2.177,11.225.585,25.943,1.331h0l17.46.917,6.8.357,4.344.229h0l1.039.057h0l36.554,1.909h0l.385.025h0l16.311.849h.293l1.631.082h0l5.561.293,6.952.357h0l2.291.121h0l.432.025,3.241.168h0l.924.046h0l3.094.164h0l1.231.068h.3l2.894.154,4.483.235h.021l1.392.071h.15l.832.047,2.042.107h0l1.784.093h.018l2,.1h.032l1.517.082h0l1.164.061,4.129.218h0l.742.039h.257l.357.021h0l1.21.064h0l.543.029h0l4.211.218h.385l6.217-.054h.043l23.638-.193h2.338l7.609-.061h1.135Z" transform="translate(-70.689 -420.751)" fill="#efc6cd"/>
    <path id="Path_1244" data-name="Path 1244" d="M387.462,642.417l2.2,11.7,59.774-.9s4.5,1.3,4.4-2.3c0,0,9.1-8.6,55.177,1.4L491.317,638.42l-48.36,2.6-56.077-1.5Z" transform="translate(-273.933 -430.262)" fill="#6c63ff"/>
    <path id="Path_1245" data-name="Path 1245" d="M391.59,640.618l2.1,12.7s51.394-1.5,59.474-.1l-6.107-11.6S415.981,638.719,391.59,640.618Z" transform="translate(-276.962 -431.261)" fill="#fff"/>
    <path id="Path_1246" data-name="Path 1246" d="M391.59,640.618l2.1,12.7s51.394-1.5,59.474-.1l-6.107-11.6S415.981,638.719,391.59,640.618Z" transform="translate(-276.962 -431.261)" opacity="0.1"/>
    <path id="Path_1247" data-name="Path 1247" d="M393.74,640.569l2.07,11.806s50.741-1.392,58.736-.093L448.525,641.5S417.824,638.8,393.74,640.569Z" transform="translate(-278.345 -431.259)" fill="#fff"/>
    <path id="Path_1248" data-name="Path 1248" d="M396.35,641.647l2.016,11.043s49.627-1.3,57.461-.086l-5.889-10.09S419.909,639.98,396.35,641.647Z" transform="translate(-280.024 -431.973)" opacity="0.1"/>
    <path id="Path_1249" data-name="Path 1249" d="M397.47,640.531l2.027,11.064s49.628-1.3,57.462-.086l-5.9-10.1S421.029,638.878,397.47,640.531Z" transform="translate(-280.744 -431.259)" fill="#fff"/>
    <path id="Path_1250" data-name="Path 1250" d="M286.221,557.41s2.6,3.394-1.2,8.523-6.928,9.454-5.66,12.652c0,0,5.71-9.522,10.386-9.636S291.35,563.135,286.221,557.41Z" transform="translate(-204.607 -378.165)" fill="#6c63ff"/>
    <path id="Path_1251" data-name="Path 1251" d="M286.485,557.41a4.129,4.129,0,0,1,.532,1.071c4.547,5.354,6.97,10.35,2.6,10.457-4.072.114-8.955,7.4-10.125,9.237q.061.207.139.417s5.71-9.522,10.386-9.636S291.614,563.135,286.485,557.41Z" transform="translate(-204.871 -378.165)" opacity="0.1"/>
    <path id="Path_1252" data-name="Path 1252" d="M311.54,568.159c0,1.192-.136,2.163-.3,2.163s-.3-.971-.3-2.163.168-.635.332-.635S311.54,566.963,311.54,568.159Z" transform="translate(-225.097 -384.585)" fill="#ffd037"/>
    <path id="Path_1253" data-name="Path 1253" d="M313.572,572.046c-1.049.575-1.963.921-2.042.774s.714-.714,1.756-1.3.635-.157.714,0S314.621,571.475,313.572,572.046Z" transform="translate(-225.473 -387.048)" fill="#ffd037"/>
    <path id="Path_1254" data-name="Path 1254" d="M250.158,557.41s-2.6,3.394,1.2,8.523,6.924,9.454,5.66,12.652c0,0-5.728-9.522-10.389-9.636S245.029,563.135,250.158,557.41Z" transform="translate(-182.259 -378.165)" fill="#6c63ff"/>
    <path id="Path_1255" data-name="Path 1255" d="M250.158,557.41a4.283,4.283,0,0,0-.532,1.071c-4.547,5.354-6.97,10.35-2.6,10.457,4.072.114,8.958,7.4,10.129,9.237a4.3,4.3,0,0,1-.139.417s-5.728-9.522-10.389-9.636S245.029,563.135,250.158,557.41Z" transform="translate(-182.26 -378.165)" opacity="0.1"/>
    <path id="Path_1256" data-name="Path 1256" d="M247.13,568.159c0,1.192.136,2.163.3,2.163s.3-.971.3-2.163-.168-.635-.332-.635S247.13,566.963,247.13,568.159Z" transform="translate(-184.061 -384.585)" fill="#ffd037"/>
    <path id="Path_1257" data-name="Path 1257" d="M241.343,572.046c1.049.575,1.967.921,2.045.774s-.714-.714-1.756-1.3-.635-.157-.714,0S240.294,571.475,241.343,572.046Z" transform="translate(-179.93 -387.048)" fill="#ffd037"/>
    <path id="Path_1258" data-name="Path 1258" d="M268.648,601.055l-.128,1.071-.182,1.5-.075.625-.182,1.5-.078.625-.186,1.5L265.74,624.9c-.186,1.52-2.67,2.705-5.668,2.705H249.286c-3,0-5.478-1.185-5.664-2.705l-2.081-17.031-.182-1.5-.075-.625-.186-1.5-.075-.625-.182-1.5-.132-1.071c-.1-.86,1.238-1.585,2.937-1.585h22.078C267.421,599.47,268.766,600.194,268.648,601.055Z" transform="translate(-179.928 -405.214)" fill="#65617d"/>
    <path id="Path_1259" data-name="Path 1259" d="M198.339,551.59l-.182,1.5H170.832l-.182-1.5Z" transform="translate(-109.736 -354.689)" fill="#9d9cb5"/>
    <path id="Path_1260" data-name="Path 1260" d="M198.545,557.54l-.182,1.5H171.556l-.186-1.5Z" transform="translate(-110.199 -358.515)" fill="#9d9cb5"/>
    <path id="Path_1261" data-name="Path 1261" d="M198.754,563.49l-.182,1.5h-26.29l-.182-1.5Z" transform="translate(-110.669 -362.342)" fill="#9d9cb5"/>
    <path id="Path_1262" data-name="Path 1262" d="M399.27,595.64s-6.931-6.663-6.663,2S399.27,595.64,399.27,595.64Z" transform="translate(-277.611 -401.176)" fill="#ee8e9e"/>
    <path id="Path_1263" data-name="Path 1263" d="M449.16,509.981a10.11,10.11,0,0,1-2.063,3.18c-6.01,7.238-23.109,22.281-26.461,25.072-4,3.334-12.927,2.141-12.927,2.141l-16.525.268s-16.393-.667-17.727-19.987,19.191,5.864,19.191,5.864,5.139.985,6.8.8c2.4-.264,7.463-3.062,7.463-3.062s3.466-2.534,6.663-4.665,15.193-16.26,17.328-21.193c1.353-3.13,5.71-8.248,8.719-11.567,1.727-1.909,3.009-3.212,3.009-3.212S450.092,505.848,449.16,509.981Z" transform="translate(-265.261 -330.711)" fill="#ee8e9e"/>
    <path id="Path_1264" data-name="Path 1264" d="M568.49,509.955a10.115,10.115,0,0,1-2.063,3.18c-6.067-6.178-7.334-18.506-7.477-26.343,1.727-1.909,3.009-3.212,3.009-3.212S569.422,505.822,568.49,509.955Z" transform="translate(-384.591 -330.685)" opacity="0.1"/>
    <path id="Path_1265" data-name="Path 1265" d="M691.6,477.06h0l-5.764,6.717-7.534.457-12.06.742s-16.26-19.594-13.205-23.859a7.807,7.807,0,0,0,1.071-5.486c-.028-.264-.068-.528-.114-.789a22.793,22.793,0,0,0-1.9-5.853l.4-.182.257-.118a25.588,25.588,0,0,1,1.306,5.464c.039.253.075.517.111.789.125.964.239,2.034.357,3.212.928,10.786,7.713,14.844,10.775,16.136a31.058,31.058,0,0,1,2.884,1.4,15.386,15.386,0,0,0,9.672,1.749c7.559-.992,13.723-6.485,13.723-6.485l.032,5.407Z" transform="translate(-444.489 -308.248)" opacity="0.1"/>
    <path id="Path_1266" data-name="Path 1266" d="M633.181,515.923s-49.577-.136-56.112-4.665-2.663-10.529-2.8-12-2.93-5.2-3.862-6.267.8-2.4.532-5.329-2.53,0-2.53,0c-9.333-9.465-7.334-33.453-7.334-33.453s8.923-2.263,13.205-4c1.16-.471,2.966-1.142,5-1.867l.753-.271c5.236-1.874,11.46-3.99,11.46-3.99s1.2-.846,2.4,1.685a22.241,22.241,0,0,1,1.545,6.032c.039.253.075.518.111.789.125.964.239,2.034.357,3.212.928,10.786,7.713,14.844,10.775,16.136a31.066,31.066,0,0,1,2.884,1.4,15.387,15.387,0,0,0,9.672,1.749c7.559-.992,13.723-6.485,13.723-6.485l.032,5.407.093,16.246Z" transform="translate(-385.843 -305.199)" fill="#dfe5ee"/>
    <path id="Path_1267" data-name="Path 1267" d="M660.158,583.3l-.8,5.064s-19.726,4.929-27.453,6.4-24.391-.4-25.59,2.8,5.065,7.6,5.065,7.6l19.986-.268,37.718,2.934s14.394-12.663,9.729-21.461S660.158,583.3,660.158,583.3Z" transform="translate(-414.953 -393.633)" fill="#ee8e9e"/>
    <path id="Path_1268" data-name="Path 1268" d="M629.953,474.58s-9.065,7.463-7.331,11.064S629.953,474.58,629.953,474.58Z" transform="translate(-425.397 -324.897)" opacity="0.1"/>
    <path id="Path_1269" data-name="Path 1269" d="M596.542,512.29s-9.2,15.861-8.662,17.06,3.066,5.464,2.93,2.266S596.542,512.29,596.542,512.29Z" transform="translate(-403.181 -349.149)" opacity="0.1"/>
    <path id="Path_1270" data-name="Path 1270" d="M614.186,520.14s-2.141,9.861-4.265,13.994S614.186,520.14,614.186,520.14Z" transform="translate(-417.092 -354.197)" opacity="0.1"/>
    <path id="Path_1271" data-name="Path 1271" d="M646.112,429.216a23.056,23.056,0,0,1-17.524,11.856h-.043a23.017,23.017,0,0,1-16.225-4.247c5.354-1.934,12.213-4.261,12.213-4.261s1.2-.846,2.4,1.685l17.995-8.209A9.54,9.54,0,0,0,646.112,429.216Z" transform="translate(-418.913 -293.681)" opacity="0.1"/>
    <path id="Path_1272" data-name="Path 1272" d="M631.792,360.242a22.954,22.954,0,0,1-3.034,11.442,23.226,23.226,0,0,1-3.437,4.576,22.959,22.959,0,0,1-13.976,6.91H611.3a22.512,22.512,0,0,1-2.563.146,23.056,23.056,0,0,1-22.91-20.458,22.383,22.383,0,0,1-.146-2.6,23.056,23.056,0,0,1,46.112,0Z" transform="translate(-401.781 -236.549)" fill="#ee8e9e"/>
    <path id="Path_1273" data-name="Path 1273" d="M753.855,503.719,756,500.507s11.728-13.994,23.2-5.064l-.4,12.263a32.51,32.51,0,0,1-1.335,5.71,3.9,3.9,0,0,0,.4,3.6s.667,3.212-.264,3.212-2.534,4.8-2.534,4.8-2.266,4.932-.931,7.2,4.265,9.861,4.265,9.861-4.665-2.8-6-7.463c0,0-11.328-8.8-20.126-3.212Z" transform="translate(-508.914 -336.399)" opacity="0.1"/>
    <path id="Path_1274" data-name="Path 1274" d="M786.458,490.97a23.454,23.454,0,0,1-.9,6.96L765.433,501l-.753-5.225C767.314,493.023,776.893,484.286,786.458,490.97Z" transform="translate(-516.895 -333.853)" opacity="0.1"/>
    <path id="Path_1275" data-name="Path 1275" d="M753.855,501.719,756,498.507s11.728-13.994,23.2-5.064l-.4,12.263a32.512,32.512,0,0,1-1.335,5.711,3.9,3.9,0,0,0,.4,3.6s.667,3.212-.264,3.212-2.534,4.8-2.534,4.8-2.266,4.932-.931,7.2,4.265,9.861,4.265,9.861-4.665-2.8-6-7.463c0,0-11.328-8.8-20.126-3.212Z" transform="translate(-508.914 -335.112)" fill="#dfe5ee"/>
    <path id="Path_1276" data-name="Path 1276" d="M776.533,496.61s-19.323,11.864-18.391,22.267C758.141,518.877,768.938,499.808,776.533,496.61Z" transform="translate(-512.669 -339.065)" opacity="0.1"/>
    <path id="Path_1277" data-name="Path 1277" d="M648.813,405.343l.093,16.246c-3.655.164-7.1-.31-9.822-2.677a11.786,11.786,0,0,1-3.569-6.389,22.628,22.628,0,0,1-.464-6.042.336.336,0,0,1,0-.061c.225-4.486,1.256-8.973.714-13.43s-3.244-9.162-7.656-10.1a4.623,4.623,0,0,1-2.47-.9,3.582,3.582,0,0,1-.578-2.812l.129-1.667c.032-.428.046-.853.046-1.278A16.357,16.357,0,0,0,612.031,360.2l-.143-.025a9.02,9.02,0,0,0-3.776-.211c-2.363.546-3.89,2.837-6.067,3.926-4.176,2.084-11.139-.2-15.511-.914-.286-.046-.557-.1-.817-.161a22.407,22.407,0,0,1-.146-2.6,23.056,23.056,0,1,1,43.078,11.442c.068.136.143.271.221.4,4.85,8.03,20.4,2.952,20.4,2.952l.935,28.656Z" transform="translate(-401.71 -236.527)" opacity="0.1"/>
    <path id="Path_1278" data-name="Path 1278" d="M592.139,333.745c2.163-1.092,3.69-3.383,6.067-3.926a9.1,9.1,0,0,1,3.78.207l.143.029a16.371,16.371,0,0,1,13.145,17.321l-.128,1.667a3.529,3.529,0,0,0,.582,2.809,4.511,4.511,0,0,0,2.466.892c4.411.942,7.113,5.621,7.656,10.1s-.507,8.983-.714,13.487.621,9.476,4.026,12.435c5.354,4.64,13.491,2,20.576,1.574-3.134,0-5.482-3.234-5.653-6.36s1.221-6.1,2.552-8.923,2.666-5.853,2.37-8.973c-.407-4.283-3.783-7.713-5.075-11.835-1.506-4.8-.054-9.947.628-14.933,1.281-9.337-.714-19.847-7.941-25.883-3.026-2.523-6.728-4.076-10.054-6.189-5.96-3.78-10.661-9.322-16.685-13s-14.483-5.039-19.74-.328c-2.034,1.824-3.348,4.354-5.439,6.114-4.087,3.444-10.582,3.508-13.859,7.734-2.82,3.637-2.056,8.8-1.153,13.316,1.2,6.021.525,10.707,6.96,11.778C581,333.552,587.96,335.833,592.139,333.745Z" transform="translate(-390.966 -206.779)" fill="#603556"/>
    <path id="Path_1279" data-name="Path 1279" d="M645.077,416.753c-5.157.632-10.268.956-14.023-2.3-3.4-2.959-4.244-7.927-4.026-12.435s1.26-9.012.714-13.491-3.244-9.158-7.656-10.1a4.579,4.579,0,0,1-2.466-.892,3.558,3.558,0,0,1-.582-2.812l.128-1.667a16.368,16.368,0,0,0-13.145-17.317l-.143-.029a9.1,9.1,0,0,0-3.78-.207c-2.363.546-3.89,2.855-6.067,3.926-4.179,2.088-11.135-.193-15.515-.91-6.424-1.053-5.753-5.746-6.96-11.778-.674-3.369-1.271-7.1-.357-10.293a5.608,5.608,0,0,0-.493.575c-2.82,3.637-2.056,8.8-1.153,13.316,1.2,6.021.525,10.707,6.96,11.778,4.376.714,11.335,3,15.515.91,2.163-1.092,3.69-3.383,6.067-3.926a9.1,9.1,0,0,1,3.78.207l.143.029a16.371,16.371,0,0,1,13.145,17.321l-.128,1.667a3.529,3.529,0,0,0,.582,2.809,4.511,4.511,0,0,0,2.466.892c4.411.942,7.113,5.621,7.656,10.1s-.5,8.983-.714,13.487.621,9.476,4.026,12.435c5.354,4.64,13.491,2,20.576,1.574A5.428,5.428,0,0,1,645.077,416.753Z" transform="translate(-390.882 -236.067)" opacity="0.1"/>
    <path id="Path_1280" data-name="Path 1280" d="M370.941,579.779l22-8.209a2.1,2.1,0,0,1,2.695,1.228h0a2.1,2.1,0,0,1-1.228,2.695l-22,8.209-4.718-.471Z" transform="translate(-261.592 -387.186)" fill="#5c5c8e"/>
    <path id="Path_1281" data-name="Path 1281" d="M394.95,572.72h0a2.1,2.1,0,0,1-1.231,2.695L371.7,583.652l-3.541-.357-.51.542,4.718.471,22-8.209a2.1,2.1,0,0,0,1.228-2.695h0a2.1,2.1,0,0,0-.857-1.046A2.426,2.426,0,0,1,394.95,572.72Z" transform="translate(-261.567 -387.779)" fill="#fff" opacity="0.1"/>
    <path id="Path_1282" data-name="Path 1282" d="M300.511,539.52l1.463,3.922-3.869-.389-.846-.086,1.156-1.228Z" transform="translate(-191.159 -346.927)" fill="#efc8c4"/>
    <path id="Path_1283" data-name="Path 1283" d="M368.866,601a.936.936,0,0,1,.228.246.357.357,0,0,1,0,.382.759.759,0,0,1-.211.154.714.714,0,0,0-.314.528l-.849-.082Z" transform="translate(-261.612 -406.198)" fill="#727a9c"/>
    <path id="Path_1284" data-name="Path 1284" d="M569.637,641.958s19.059-4,51.037,1.071l-12.527-9.194-22.792-4.665-16.125,4.283Z" transform="translate(-391.202 -424.314)" fill="#fff"/>
    <path id="Path_1285" data-name="Path 1285" d="M569.637,641.958s19.059-4,51.037,1.071l-12.527-9.194-22.792-4.665-16.125,4.283Z" transform="translate(-391.202 -424.314)" opacity="0.1"/>
    <path id="Path_1286" data-name="Path 1286" d="M553.152,648.26s9.6-25.961,58.889.082l-17.692-11.385s-42.382-11.71-47.279,1.784Z" transform="translate(-376.951 -426.29)" fill="#fff"/>
    <path id="Path_1287" data-name="Path 1287" d="M553.107,644.844s9.6-27.756,58.889.5L594.3,633s-42.4-14-47.3.653Z" transform="translate(-376.906 -422.892)" opacity="0.1"/>
    <path id="Path_1288" data-name="Path 1288" d="M553.152,644.664s9.6-28.167,58.889.089L594.349,632.4s-42.382-13.605-47.279,1.071Z" transform="translate(-376.951 -422.701)" fill="#fff"/>
    <path id="Path_1289" data-name="Path 1289" d="M553.126,642.609s9.6-31.3,58.889.482L594.309,629.2s-42.382-14.276-47.279,2.2Z" transform="translate(-376.925 -420.639)" opacity="0.1"/>
    <path id="Path_1290" data-name="Path 1290" d="M553.126,641.871s9.6-31.686,58.889.1l-17.706-13.894s-42.382-14.276-47.279,2.2Z" transform="translate(-376.925 -419.919)" fill="#fff"/>
    <path id="Path_1291" data-name="Path 1291" d="M968.311,668.71s-11.831,12.674-1.181,18.83a2.954,2.954,0,0,0,3.38.8s-.671-.6.675-1.745a7.992,7.992,0,0,0,1.267-1.392,3.926,3.926,0,0,0,.735-2.377h0s1.549-5.029-3.373-11.557c0,0-.446-2.184-.824-2.423l-.9,3.044a5.242,5.242,0,0,1,3.109,2.295s-2.977-2.338-3.266-1.849c-.057.1-.4,1.638-.4,1.638s3.926,1.014,5.154,3.712c0,0-3.173-3.259-5.289-3.13l-.385,2.348s4.2.871,5.711,3.89c0,0-3.433-3.294-5.768-3.369l-.068,2.359s4.079.928,5.325,3.448c0,0-4.351-3.4-5.3-2.905a11.663,11.663,0,0,0,.357,2.741s2.912.714,3.5,2.263c0,0-3.148-1.967-3.419-1.667a12.278,12.278,0,0,0,2.024,4,8.879,8.879,0,0,1-2.455-3.848,4.9,4.9,0,0,0-.593,2.738s-1.167-1.292.4-3.419a11.281,11.281,0,0,1-.428-2.563,10.66,10.66,0,0,0-2.309,3.569s-.357-2.113,2.306-4.179v-2.377s-2.563,2.359-3.091,3.819c0,0-.036-2.213,3.144-4.415l.357-2.309a18.06,18.06,0,0,0-3.3,3.362s.407-2.063,3.426-4.019l.418-1.513s-1.7,1.392-2.141,1.834-.61.357-.61.357a7.5,7.5,0,0,1,2.927-2.834S968.508,668.792,968.311,668.71Z" transform="translate(-644.231 -449.742)" fill="#6c63ff" opacity="0.1"/>
    <path id="Path_1292" data-name="Path 1292" d="M1107.987,90.91s-15.807,7.138-8.355,16.914a2.958,2.958,0,0,0,2.809,2.045s-.389-.81,1.3-1.353a7.812,7.812,0,0,0,1.706-.8,3.926,3.926,0,0,0,1.6-1.909h0s3.369-4.04,1.346-11.96c0,0,.432-2.188.175-2.555l-2.006,2.463a5.238,5.238,0,0,1,1.984,3.316s-1.842-3.3-2.3-2.962c-.093.068-1,1.353-1,1.353s3.212,2.448,3.323,5.414c0,0-1.67-4.233-3.676-4.932l-1.26,2.02s3.541,2.423,3.776,5.793c0,0-1.9-4.361-4.022-5.332l-.974,2.141s3.409,2.431,3.569,5.236c0,0-2.7-4.818-3.772-4.725a11.08,11.08,0,0,0-.714,2.666s2.406,1.785,2.363,3.441c0,0-2.141-3.027-2.5-2.855a12.225,12.225,0,0,0,.325,4.472,8.86,8.86,0,0,1-.781-4.5,4.883,4.883,0,0,0-1.6,2.3s-.578-1.645,1.685-3.005a11.2,11.2,0,0,1,.592-2.527,10.652,10.652,0,0,0-3.5,2.388s.482-2.088,3.74-2.966l.928-2.184s-3.273,1.185-4.326,2.327c0,0,.821-2.056,4.6-2.855l1.217-1.992a18.232,18.232,0,0,0-4.344,1.827s1.174-1.742,4.715-2.384l.967-1.235s-2.106.628-2.695.864-.714.1-.714.1a7.5,7.5,0,0,1,3.815-1.485A18.746,18.746,0,0,0,1107.987,90.91Z" transform="translate(-731.018 -78.161)" fill="#6c63ff" opacity="0.1"/>
    <path id="Path_1293" data-name="Path 1293" d="M678.578,103.29s-23.748,6.781-12.2,16.874c0,0,1.024,2.141,4.311,2.141,0,0-.614-.828,1.927-1.331a15.1,15.1,0,0,0,2.563-.757,4.572,4.572,0,0,0,2.363-1.888h0s5-4,1.717-12.056c0,0,.6-2.2.2-2.577l-2.969,2.434s2.855,1.467,3.094,3.4c0,0-2.88-3.387-3.569-3.055-.139.068-1.485,1.338-1.485,1.338s4.954,2.563,5.179,5.564c0,0-2.641-4.322-5.71-5.082l-1.856,2.006s5.425,2.545,5.871,5.957c0,0-2.991-4.458-6.232-5.5l-1.428,2.141s5.225,2.548,5.568,5.389c0,0-4.222-4.943-5.843-4.882,0,0-1.117,2.034-1.017,2.68,0,0,3.69,1.884,3.672,3.54,0,0-3.333-3.119-3.883-2.955,0,0-.378,2.937.614,4.529,0,0-1.72-2.288-1.306-4.565a5.366,5.366,0,0,0-2.363,2.277s-.921-1.674,2.47-2.987c0,0,.432-2.277.828-2.541,0,0-3.641.971-5.236,2.32,0,0,.671-2.1,5.582-2.9l1.349-2.184s-4.925,1.114-6.489,2.238c0,0,1.188-2.056,6.9-2.77l1.785-1.981a35.12,35.12,0,0,0-6.531,1.731s1.731-1.731,7.074-2.284l1.428-1.221s-3.173.578-4.058.8-1.071.079-1.071.079a14.059,14.059,0,0,1,5.71-1.4S678.785,103.44,678.578,103.29Z" transform="translate(-451.64 -86.122)" fill="#6c63ff" opacity="0.1"/>
    <path id="Path_1294" data-name="Path 1294" d="M893.6,808.859s11.956-12.559,1.367-18.82a2.959,2.959,0,0,0-3.373-.835s.667.6-.689,1.742a8.058,8.058,0,0,0-1.281,1.378,3.9,3.9,0,0,0-.757,2.37h0s-1.6,5.015,3.259,11.589c0,0,.425,2.188.8,2.434l.931-3.037a5.24,5.24,0,0,1-3.087-2.323s2.952,2.363,3.244,1.877c.061-.1.421-1.631.421-1.631s-3.926-1.071-5.118-3.762c0,0,3.141,3.291,5.261,3.18l.407-2.345s-4.19-.91-5.678-3.926c0,0,3.4,3.326,5.735,3.426l.089-2.363s-4.072-.985-5.307-3.519c0,0,4.319,3.448,5.275,2.959a10.631,10.631,0,0,0-.357-2.741s-2.905-.764-3.483-2.3c0,0,3.13,2,3.4,1.7a12.246,12.246,0,0,0-1.984-4.019,8.875,8.875,0,0,1,2.42,3.869,4.879,4.879,0,0,0,.618-2.73s1.156,1.306-.428,3.416a11.282,11.282,0,0,1,.4,2.566,10.692,10.692,0,0,0,2.341-3.53s.357,2.116-2.345,4.154l-.036,2.377s2.584-2.334,3.127-3.79c0,0,0,2.216-3.187,4.386l-.357,2.306a18.118,18.118,0,0,0,3.334-3.33s-.428,2.056-3.466,3.983l-.432,1.51s1.713-1.374,2.17-1.813.614-.357.614-.357a7.469,7.469,0,0,1-2.955,2.805A18.3,18.3,0,0,0,893.6,808.859Z" transform="translate(-596.595 -527.075)" fill="#6c63ff" opacity="0.1"/>
    <path id="Path_1295" data-name="Path 1295" d="M575.85,55.769s2.038,17.217,13.616,13.063a2.96,2.96,0,0,0,2.795-2.066s-.892.128-.9-1.642a8,8,0,0,0-.246-1.867,3.9,3.9,0,0,0-1.338-2.1h0s-2.841-4.433-11.018-4.868c0,0-1.956-1.071-2.384-.935l1.745,2.652a5.226,5.226,0,0,1,3.758-.892s-3.7.764-3.516,1.3c.036.111.985,1.363.985,1.363s3.337-2.356,6.192-1.553c0,0-4.536.314-5.807,2.017l1.524,1.813s3.376-2.648,6.663-1.859c0,0-4.733.5-6.3,2.231l1.777,1.578s3.341-2.52,6.067-1.842c0,0-5.411,1.128-5.646,2.174a11.413,11.413,0,0,0,2.331,1.492s2.441-1.752,3.99-1.217c0,0-3.533,1.135-3.48,1.535a12.267,12.267,0,0,0,4.361,1.035,9.057,9.057,0,0,1-4.522-.607,4.894,4.894,0,0,0,1.71,2.22s-1.742.054-2.359-2.5a11.372,11.372,0,0,1-2.231-1.324,10.681,10.681,0,0,0,1.224,4.054S583,67.957,583.138,64.57l-1.785-1.545s.146,3.48.917,4.829c0,0-1.713-1.4-1.342-5.254l-1.531-1.76a18.137,18.137,0,0,0,.432,4.69s-1.31-1.642-.853-5.211l-.889-1.3s-.032,2.195,0,2.83-.121.7-.121.7a7.493,7.493,0,0,1-.278-4.079A18.221,18.221,0,0,0,575.85,55.769Z" transform="translate(-395.459 -55.29)" fill="#6c63ff" opacity="0.1"/>
    <path id="Path_1296" data-name="Path 1296" d="M786.859,733.753s-16.71-4.64-17.246,7.652a2.961,2.961,0,0,0,.853,3.369s.218-.871,1.859-.211a7.986,7.986,0,0,0,1.82.482,3.9,3.9,0,0,0,2.448-.45h0s5.175-.949,8.687-8.33c0,0,1.731-1.4,1.785-1.852l-3.116.61a5.239,5.239,0,0,1-.6,3.819s.714-3.719.132-3.748c-.118,0-1.638.4-1.638.4s.914,3.947-.91,6.285c0,0,1.428-4.319.332-6.139l-2.263.746s1.171,4.126-.807,6.867c0,0,1.335-4.565.321-6.671l-2.12,1.031s1.071,4.047-.6,6.317c0,0,1.007-5.432.125-6.05a11.616,11.616,0,0,0-2.259,1.592s.714,2.923-.385,4.154c0,0,.286-3.7-.1-3.8a12.216,12.216,0,0,0-2.613,3.644,8.873,8.873,0,0,1,2.277-3.954,4.9,4.9,0,0,0-2.7.739s.607-1.631,3.212-1.228a11.186,11.186,0,0,1,2.074-1.563,10.608,10.608,0,0,0-4.219-.407s1.706-1.3,4.772.114l2.113-1.071s-3.276-1.181-4.815-.978c0,0,1.945-1.071,5.354.746l2.206-.753a18.157,18.157,0,0,0-4.5-1.374s2.017-.589,5.147,1.185l1.535-.332s-2.02-.864-2.623-1.071-.6-.357-.6-.357a7.494,7.494,0,0,1,3.865,1.285A18.471,18.471,0,0,0,786.859,733.753Z" transform="translate(-519.933 -491.018)" fill="#6c63ff" opacity="0.1"/>
  </g>
</svg>
