<svg xmlns="http://www.w3.org/2000/svg" width="17.802" height="20.345" viewBox="0 0 17.802 20.345">
  <path id="Icon_awesome-calendar-day" data-name="Icon awesome-calendar-day" d="M0,18.438a1.908,1.908,0,0,0,1.907,1.907H15.895A1.908,1.908,0,0,0,17.8,18.438V7.629H0Zm2.543-7.629a.638.638,0,0,1,.636-.636H6.994a.638.638,0,0,1,.636.636v3.815a.638.638,0,0,1-.636.636H3.179a.638.638,0,0,1-.636-.636ZM15.895,2.543H13.987V.636A.638.638,0,0,0,13.351,0H12.08a.638.638,0,0,0-.636.636V2.543H6.358V.636A.638.638,0,0,0,5.722,0H4.45a.638.638,0,0,0-.636.636V2.543H1.907A1.908,1.908,0,0,0,0,4.45V6.358H17.8V4.45A1.908,1.908,0,0,0,15.895,2.543Z" fill="#632fdf"/>
</svg>
